%TF.GenerationSoftware,KiCad,Pcbnew,9.0.7*%
%TF.CreationDate,2026-03-26T22:21:25+08:00*%
%TF.ProjectId,SpeedMacro,53706565-644d-4616-9372-6f2e6b696361,1*%
%TF.SameCoordinates,Original*%
%TF.FileFunction,Soldermask,Top*%
%TF.FilePolarity,Negative*%
%FSLAX46Y46*%
G04 Gerber Fmt 4.6, Leading zero omitted, Abs format (unit mm)*
G04 Created by KiCad (PCBNEW 9.0.7) date 2026-03-26 22:21:25*
%MOMM*%
%LPD*%
G01*
G04 APERTURE LIST*
G04 Aperture macros list*
%AMRoundRect*
0 Rectangle with rounded corners*
0 $1 Rounding radius*
0 $2 $3 $4 $5 $6 $7 $8 $9 X,Y pos of 4 corners*
0 Add a 4 corners polygon primitive as box body*
4,1,4,$2,$3,$4,$5,$6,$7,$8,$9,$2,$3,0*
0 Add four circle primitives for the rounded corners*
1,1,$1+$1,$2,$3*
1,1,$1+$1,$4,$5*
1,1,$1+$1,$6,$7*
1,1,$1+$1,$8,$9*
0 Add four rect primitives between the rounded corners*
20,1,$1+$1,$2,$3,$4,$5,0*
20,1,$1+$1,$4,$5,$6,$7,0*
20,1,$1+$1,$6,$7,$8,$9,0*
20,1,$1+$1,$8,$9,$2,$3,0*%
G04 Aperture macros list end*
%ADD10C,0.000000*%
%ADD11C,1.750000*%
%ADD12C,3.050000*%
%ADD13C,4.000000*%
%ADD14RoundRect,0.250000X-0.550000X0.550000X-0.550000X-0.550000X0.550000X-0.550000X0.550000X0.550000X0*%
%ADD15C,1.600000*%
%ADD16C,3.048000*%
%ADD17C,3.987800*%
%ADD18R,1.700000X1.700000*%
%ADD19C,1.700000*%
%ADD20R,2.000000X2.000000*%
%ADD21C,2.000000*%
%ADD22R,3.200000X2.000000*%
%ADD23R,3.500000X1.700000*%
%ADD24O,3.600000X1.700000*%
%ADD25O,3.700000X1.700000*%
G04 APERTURE END LIST*
D10*
%TO.C,G\u002A\u002A\u002A*%
G36*
X120020000Y-52546666D02*
G01*
X120020000Y-53486666D01*
X120491666Y-53486666D01*
X120963333Y-53486666D01*
X120963333Y-53661666D01*
X120963333Y-53836666D01*
X120298333Y-53836666D01*
X119633333Y-53836666D01*
X119633333Y-52721666D01*
X119633333Y-51606666D01*
X119826666Y-51606666D01*
X120020000Y-51606666D01*
X120020000Y-52546666D01*
G37*
G36*
X119126666Y-51781666D02*
G01*
X119126666Y-51956666D01*
X118835000Y-51956666D01*
X118543333Y-51956666D01*
X118543333Y-52896666D01*
X118543333Y-53836666D01*
X118351666Y-53836666D01*
X118160000Y-53836666D01*
X118160000Y-52896666D01*
X118160000Y-51956666D01*
X117868333Y-51956666D01*
X117576666Y-51956666D01*
X117576666Y-51781666D01*
X117576666Y-51606666D01*
X118351666Y-51606666D01*
X119126666Y-51606666D01*
X119126666Y-51781666D01*
G37*
G36*
X123859885Y-51578964D02*
G01*
X123889712Y-51579389D01*
X123917240Y-51580218D01*
X123940982Y-51581450D01*
X123958333Y-51582955D01*
X124031089Y-51593845D01*
X124099030Y-51609336D01*
X124162173Y-51629432D01*
X124220533Y-51654138D01*
X124274127Y-51683460D01*
X124282934Y-51689013D01*
X124334269Y-51725456D01*
X124379860Y-51765066D01*
X124419784Y-51807979D01*
X124454117Y-51854328D01*
X124482933Y-51904248D01*
X124506310Y-51957872D01*
X124524321Y-52015334D01*
X124537044Y-52076769D01*
X124544553Y-52142311D01*
X124545334Y-52154166D01*
X124547645Y-52193333D01*
X124355640Y-52193333D01*
X124163635Y-52193333D01*
X124161987Y-52182500D01*
X124160830Y-52173410D01*
X124159479Y-52160685D01*
X124158418Y-52149242D01*
X124151903Y-52111393D01*
X124139253Y-52075265D01*
X124120911Y-52041498D01*
X124097319Y-52010736D01*
X124068923Y-51983619D01*
X124036164Y-51960790D01*
X124023333Y-51953716D01*
X123994862Y-51940379D01*
X123966788Y-51930216D01*
X123937676Y-51922925D01*
X123906092Y-51918206D01*
X123870602Y-51915756D01*
X123840000Y-51915228D01*
X123790928Y-51917063D01*
X123746902Y-51922699D01*
X123707360Y-51932331D01*
X123671741Y-51946155D01*
X123639482Y-51964365D01*
X123610024Y-51987157D01*
X123596666Y-51999829D01*
X123571275Y-52029454D01*
X123551454Y-52061674D01*
X123537028Y-52096957D01*
X123527820Y-52135766D01*
X123523656Y-52178569D01*
X123523358Y-52194307D01*
X123526443Y-52237913D01*
X123535644Y-52279088D01*
X123550773Y-52317576D01*
X123571643Y-52353122D01*
X123598069Y-52385469D01*
X123629862Y-52414362D01*
X123666838Y-52439544D01*
X123708808Y-52460760D01*
X123721671Y-52466050D01*
X123728254Y-52468269D01*
X123740541Y-52472053D01*
X123757812Y-52477191D01*
X123779346Y-52483476D01*
X123804421Y-52490697D01*
X123832316Y-52498646D01*
X123862310Y-52507113D01*
X123890005Y-52514866D01*
X123921919Y-52523777D01*
X123952931Y-52532461D01*
X123982228Y-52540689D01*
X124008997Y-52548232D01*
X124032428Y-52554860D01*
X124051706Y-52560345D01*
X124066021Y-52564456D01*
X124073333Y-52566597D01*
X124143347Y-52590349D01*
X124208231Y-52618315D01*
X124268066Y-52650557D01*
X124322935Y-52687133D01*
X124372920Y-52728103D01*
X124418104Y-52773527D01*
X124458567Y-52823464D01*
X124487574Y-52866667D01*
X124513754Y-52914960D01*
X124535746Y-52967666D01*
X124553413Y-53023901D01*
X124566620Y-53082784D01*
X124575231Y-53143433D01*
X124579109Y-53204965D01*
X124578117Y-53266498D01*
X124572121Y-53327151D01*
X124564983Y-53368076D01*
X124549064Y-53429265D01*
X124527474Y-53487102D01*
X124500388Y-53541441D01*
X124467982Y-53592136D01*
X124430431Y-53639040D01*
X124387910Y-53682006D01*
X124340595Y-53720889D01*
X124288659Y-53755541D01*
X124232279Y-53785817D01*
X124171629Y-53811570D01*
X124106885Y-53832652D01*
X124038222Y-53848919D01*
X123978333Y-53858664D01*
X123960517Y-53860476D01*
X123937487Y-53862037D01*
X123910690Y-53863316D01*
X123881576Y-53864285D01*
X123851592Y-53864913D01*
X123822187Y-53865171D01*
X123794810Y-53865028D01*
X123770908Y-53864456D01*
X123751930Y-53863425D01*
X123750780Y-53863331D01*
X123674663Y-53854259D01*
X123602273Y-53840169D01*
X123533788Y-53821129D01*
X123469388Y-53797206D01*
X123409251Y-53768468D01*
X123353558Y-53734982D01*
X123302488Y-53696815D01*
X123297717Y-53692807D01*
X123253074Y-53650677D01*
X123213908Y-53604765D01*
X123180283Y-53555180D01*
X123152262Y-53502030D01*
X123129909Y-53445424D01*
X123113285Y-53385471D01*
X123110368Y-53371666D01*
X123106952Y-53352172D01*
X123103687Y-53329272D01*
X123100801Y-53305036D01*
X123098522Y-53281531D01*
X123097078Y-53260827D01*
X123096678Y-53247500D01*
X123096666Y-53233333D01*
X123289506Y-53233333D01*
X123482346Y-53233333D01*
X123484269Y-53263010D01*
X123490129Y-53303833D01*
X123502218Y-53342325D01*
X123520444Y-53378278D01*
X123544717Y-53411486D01*
X123553739Y-53421490D01*
X123581725Y-53447985D01*
X123611767Y-53470167D01*
X123644833Y-53488539D01*
X123681888Y-53503606D01*
X123723900Y-53515871D01*
X123743426Y-53520344D01*
X123757695Y-53523140D01*
X123771353Y-53525175D01*
X123785930Y-53526569D01*
X123802957Y-53527439D01*
X123823964Y-53527904D01*
X123843333Y-53528058D01*
X123874135Y-53527850D01*
X123900248Y-53526968D01*
X123920977Y-53525446D01*
X123933333Y-53523769D01*
X123982682Y-53512121D01*
X124027169Y-53496104D01*
X124066723Y-53475764D01*
X124101278Y-53451148D01*
X124130763Y-53422301D01*
X124155112Y-53389270D01*
X124168431Y-53365000D01*
X124178144Y-53343535D01*
X124185186Y-53324205D01*
X124190035Y-53304968D01*
X124193172Y-53283785D01*
X124195078Y-53258614D01*
X124195480Y-53250000D01*
X124196136Y-53229290D01*
X124196023Y-53212948D01*
X124194991Y-53198700D01*
X124192889Y-53184275D01*
X124190244Y-53170627D01*
X124178064Y-53127121D01*
X124160234Y-53087117D01*
X124136644Y-53050411D01*
X124108504Y-53018116D01*
X124089283Y-52999944D01*
X124071121Y-52985490D01*
X124051434Y-52972885D01*
X124030283Y-52961581D01*
X124022430Y-52957670D01*
X124015223Y-52954226D01*
X124008018Y-52951046D01*
X124000167Y-52947927D01*
X123991025Y-52944665D01*
X123979945Y-52941058D01*
X123966283Y-52936903D01*
X123949391Y-52931996D01*
X123928623Y-52926136D01*
X123903335Y-52919118D01*
X123872879Y-52910741D01*
X123838333Y-52901272D01*
X123807131Y-52892705D01*
X123776419Y-52884236D01*
X123747123Y-52876121D01*
X123720168Y-52868619D01*
X123696480Y-52861988D01*
X123676985Y-52856485D01*
X123662609Y-52852369D01*
X123658333Y-52851120D01*
X123588706Y-52827644D01*
X123523500Y-52799686D01*
X123462867Y-52767402D01*
X123406961Y-52730944D01*
X123355933Y-52690467D01*
X123309936Y-52646126D01*
X123269122Y-52598076D01*
X123233644Y-52546470D01*
X123203655Y-52491462D01*
X123179305Y-52433208D01*
X123160749Y-52371862D01*
X123153675Y-52340000D01*
X123144810Y-52280290D01*
X123141051Y-52218742D01*
X123142310Y-52156617D01*
X123148497Y-52095175D01*
X123159525Y-52035680D01*
X123175304Y-51979392D01*
X123180023Y-51965851D01*
X123202921Y-51912500D01*
X123231659Y-51861974D01*
X123265893Y-51814612D01*
X123305274Y-51770757D01*
X123349459Y-51730749D01*
X123398099Y-51694929D01*
X123450849Y-51663639D01*
X123507363Y-51637220D01*
X123517695Y-51633092D01*
X123572175Y-51614464D01*
X123630980Y-51599194D01*
X123692462Y-51587674D01*
X123728333Y-51582906D01*
X123747341Y-51581307D01*
X123771487Y-51580114D01*
X123799285Y-51579326D01*
X123829247Y-51578943D01*
X123859885Y-51578964D01*
G37*
G36*
X116562077Y-51606690D02*
G01*
X116600075Y-51606759D01*
X116635556Y-51606870D01*
X116668003Y-51607018D01*
X116696899Y-51607200D01*
X116721726Y-51607412D01*
X116741967Y-51607651D01*
X116757105Y-51607912D01*
X116766621Y-51608191D01*
X116769998Y-51608485D01*
X116770000Y-51608491D01*
X116770806Y-51611824D01*
X116773186Y-51621387D01*
X116777080Y-51636944D01*
X116782430Y-51658264D01*
X116789176Y-51685111D01*
X116797259Y-51717251D01*
X116806621Y-51754450D01*
X116817202Y-51796475D01*
X116828944Y-51843090D01*
X116841788Y-51894063D01*
X116855673Y-51949159D01*
X116870542Y-52008143D01*
X116886336Y-52070782D01*
X116902995Y-52136842D01*
X116920460Y-52206088D01*
X116938673Y-52278287D01*
X116957574Y-52353204D01*
X116977105Y-52430606D01*
X116997206Y-52510257D01*
X117017819Y-52591925D01*
X117038884Y-52675375D01*
X117050000Y-52719405D01*
X117071281Y-52803714D01*
X117092141Y-52886374D01*
X117112519Y-52967152D01*
X117132358Y-53045811D01*
X117151597Y-53122118D01*
X117170179Y-53195838D01*
X117188043Y-53266736D01*
X117205131Y-53334577D01*
X117221384Y-53399126D01*
X117236743Y-53460150D01*
X117251148Y-53517413D01*
X117264541Y-53570681D01*
X117276863Y-53619718D01*
X117288055Y-53664290D01*
X117298056Y-53704163D01*
X117306810Y-53739102D01*
X117314256Y-53768871D01*
X117320335Y-53793237D01*
X117324989Y-53811964D01*
X117328158Y-53824819D01*
X117329784Y-53831565D01*
X117330000Y-53832580D01*
X117328602Y-53833478D01*
X117324137Y-53834244D01*
X117316201Y-53834887D01*
X117304387Y-53835416D01*
X117288290Y-53835839D01*
X117267503Y-53836165D01*
X117241622Y-53836402D01*
X117210240Y-53836559D01*
X117172951Y-53836644D01*
X117135224Y-53836666D01*
X117094228Y-53836657D01*
X117059395Y-53836618D01*
X117030218Y-53836535D01*
X117006194Y-53836392D01*
X116986818Y-53836176D01*
X116971586Y-53835871D01*
X116959992Y-53835461D01*
X116951531Y-53834932D01*
X116945700Y-53834269D01*
X116941994Y-53833457D01*
X116939907Y-53832481D01*
X116938935Y-53831326D01*
X116938752Y-53830833D01*
X116937763Y-53826734D01*
X116935413Y-53816638D01*
X116931818Y-53801045D01*
X116927093Y-53780461D01*
X116921353Y-53755387D01*
X116914713Y-53726326D01*
X116907287Y-53693782D01*
X116899191Y-53658258D01*
X116890540Y-53620256D01*
X116881449Y-53580280D01*
X116878355Y-53566666D01*
X116869143Y-53526146D01*
X116860332Y-53487433D01*
X116852038Y-53451031D01*
X116844376Y-53417443D01*
X116837460Y-53387171D01*
X116831406Y-53360718D01*
X116826328Y-53338588D01*
X116822343Y-53321284D01*
X116819564Y-53309308D01*
X116818107Y-53303163D01*
X116817936Y-53302500D01*
X116817352Y-53301485D01*
X116815964Y-53300595D01*
X116813362Y-53299821D01*
X116809134Y-53299156D01*
X116802869Y-53298591D01*
X116794158Y-53298118D01*
X116782589Y-53297729D01*
X116767752Y-53297416D01*
X116749236Y-53297171D01*
X116726631Y-53296985D01*
X116699525Y-53296851D01*
X116667509Y-53296760D01*
X116630171Y-53296704D01*
X116587102Y-53296676D01*
X116537889Y-53296667D01*
X116523172Y-53296666D01*
X116230127Y-53296666D01*
X116228345Y-53304166D01*
X116227340Y-53308534D01*
X116224971Y-53318893D01*
X116221354Y-53334736D01*
X116216607Y-53355551D01*
X116210844Y-53380832D01*
X116204182Y-53410068D01*
X116196737Y-53442751D01*
X116188624Y-53478373D01*
X116179960Y-53516423D01*
X116170861Y-53556393D01*
X116168143Y-53568333D01*
X116158945Y-53608719D01*
X116150149Y-53647297D01*
X116141870Y-53683562D01*
X116134224Y-53717010D01*
X116127327Y-53747135D01*
X116121294Y-53773434D01*
X116116241Y-53795401D01*
X116112283Y-53812532D01*
X116109537Y-53824322D01*
X116108118Y-53830266D01*
X116107969Y-53830833D01*
X116107282Y-53832055D01*
X116105676Y-53833094D01*
X116102651Y-53833965D01*
X116097703Y-53834682D01*
X116090330Y-53835261D01*
X116080030Y-53835715D01*
X116066300Y-53836060D01*
X116048638Y-53836311D01*
X116026542Y-53836482D01*
X115999509Y-53836588D01*
X115967037Y-53836644D01*
X115928624Y-53836665D01*
X115909550Y-53836666D01*
X115868391Y-53836658D01*
X115833404Y-53836622D01*
X115804098Y-53836544D01*
X115779979Y-53836410D01*
X115760553Y-53836205D01*
X115745328Y-53835913D01*
X115733809Y-53835520D01*
X115725504Y-53835012D01*
X115719920Y-53834373D01*
X115716563Y-53833589D01*
X115714940Y-53832645D01*
X115714558Y-53831527D01*
X115714698Y-53830833D01*
X115715603Y-53827312D01*
X115718061Y-53817615D01*
X115722000Y-53802028D01*
X115727347Y-53780842D01*
X115734029Y-53754343D01*
X115741974Y-53722820D01*
X115751110Y-53686563D01*
X115761363Y-53645858D01*
X115772662Y-53600994D01*
X115784933Y-53552260D01*
X115798105Y-53499944D01*
X115812104Y-53444335D01*
X115826858Y-53385720D01*
X115842296Y-53324388D01*
X115858343Y-53260627D01*
X115874927Y-53194727D01*
X115891977Y-53126974D01*
X115909419Y-53057658D01*
X115927181Y-52987066D01*
X115929173Y-52979148D01*
X116300000Y-52979148D01*
X116301249Y-52980005D01*
X116305264Y-52980745D01*
X116312440Y-52981374D01*
X116323175Y-52981901D01*
X116337866Y-52982332D01*
X116356909Y-52982675D01*
X116380702Y-52982937D01*
X116409642Y-52983127D01*
X116444126Y-52983251D01*
X116484551Y-52983317D01*
X116522791Y-52983333D01*
X116745582Y-52983333D01*
X116682716Y-52700833D01*
X116662154Y-52608211D01*
X116642924Y-52521134D01*
X116625050Y-52439709D01*
X116608556Y-52364045D01*
X116593464Y-52294249D01*
X116579797Y-52230430D01*
X116567579Y-52172694D01*
X116556833Y-52121151D01*
X116547583Y-52075908D01*
X116541737Y-52046666D01*
X116537299Y-52024339D01*
X116533188Y-52003926D01*
X116529611Y-51986426D01*
X116526772Y-51972838D01*
X116524878Y-51964163D01*
X116524262Y-51961666D01*
X116522820Y-51961467D01*
X116520653Y-51967364D01*
X116517918Y-51978841D01*
X116516044Y-51988333D01*
X116510739Y-52016679D01*
X116505660Y-52043578D01*
X116500716Y-52069448D01*
X116495817Y-52094709D01*
X116490871Y-52119780D01*
X116485788Y-52145079D01*
X116480478Y-52171026D01*
X116474849Y-52198040D01*
X116468812Y-52226539D01*
X116462275Y-52256942D01*
X116455147Y-52289670D01*
X116447339Y-52325139D01*
X116438759Y-52363771D01*
X116429317Y-52405983D01*
X116418922Y-52452194D01*
X116407484Y-52502824D01*
X116394911Y-52558292D01*
X116381113Y-52619016D01*
X116366000Y-52685415D01*
X116350147Y-52754981D01*
X116341659Y-52792275D01*
X116333624Y-52827701D01*
X116326161Y-52860716D01*
X116319392Y-52890778D01*
X116313440Y-52917346D01*
X116308424Y-52939876D01*
X116304467Y-52957828D01*
X116301690Y-52970658D01*
X116300213Y-52977824D01*
X116300000Y-52979148D01*
X115929173Y-52979148D01*
X115945190Y-52915488D01*
X115963374Y-52843210D01*
X115981660Y-52770523D01*
X115999977Y-52697714D01*
X116018250Y-52625071D01*
X116036408Y-52552883D01*
X116054378Y-52481439D01*
X116072087Y-52411025D01*
X116089464Y-52341932D01*
X116106435Y-52274447D01*
X116122928Y-52208858D01*
X116138871Y-52145454D01*
X116154190Y-52084523D01*
X116168814Y-52026354D01*
X116182669Y-51971235D01*
X116195684Y-51919454D01*
X116207785Y-51871300D01*
X116218901Y-51827060D01*
X116228958Y-51787024D01*
X116237884Y-51751479D01*
X116245607Y-51720715D01*
X116252054Y-51695018D01*
X116257152Y-51674678D01*
X116260200Y-51662500D01*
X116274161Y-51606666D01*
X116522080Y-51606666D01*
X116562077Y-51606690D01*
G37*
G36*
X122048742Y-51606691D02*
G01*
X122086740Y-51606762D01*
X122122221Y-51606875D01*
X122154669Y-51607027D01*
X122183565Y-51607214D01*
X122208392Y-51607432D01*
X122228634Y-51607677D01*
X122243771Y-51607945D01*
X122253287Y-51608231D01*
X122256665Y-51608533D01*
X122256666Y-51608540D01*
X122257473Y-51611876D01*
X122259852Y-51621442D01*
X122263747Y-51637004D01*
X122269097Y-51658327D01*
X122275843Y-51685177D01*
X122283927Y-51717320D01*
X122293289Y-51754523D01*
X122303871Y-51796551D01*
X122315613Y-51843169D01*
X122328457Y-51894145D01*
X122342343Y-51949243D01*
X122357213Y-52008230D01*
X122373007Y-52070871D01*
X122389666Y-52136932D01*
X122407132Y-52206181D01*
X122425346Y-52278381D01*
X122444248Y-52353299D01*
X122463779Y-52430702D01*
X122483881Y-52510354D01*
X122504494Y-52592022D01*
X122525560Y-52675472D01*
X122536666Y-52719465D01*
X122557948Y-52803772D01*
X122578808Y-52886431D01*
X122599187Y-52967206D01*
X122619026Y-53045864D01*
X122638266Y-53122169D01*
X122656847Y-53195887D01*
X122674712Y-53266782D01*
X122691800Y-53334621D01*
X122708053Y-53399169D01*
X122723412Y-53460191D01*
X122737817Y-53517451D01*
X122751210Y-53570717D01*
X122763532Y-53619752D01*
X122774723Y-53664322D01*
X122784725Y-53704192D01*
X122793478Y-53739128D01*
X122800924Y-53768895D01*
X122807003Y-53793258D01*
X122811657Y-53811983D01*
X122814826Y-53824834D01*
X122816451Y-53831578D01*
X122816666Y-53832591D01*
X122815252Y-53833487D01*
X122810742Y-53834252D01*
X122802732Y-53834894D01*
X122790819Y-53835422D01*
X122774598Y-53835844D01*
X122753667Y-53836169D01*
X122727622Y-53836405D01*
X122696059Y-53836561D01*
X122658575Y-53836645D01*
X122621891Y-53836666D01*
X122580895Y-53836657D01*
X122546061Y-53836618D01*
X122516885Y-53836535D01*
X122492861Y-53836392D01*
X122473485Y-53836176D01*
X122458252Y-53835871D01*
X122446658Y-53835461D01*
X122438198Y-53834932D01*
X122432367Y-53834269D01*
X122428660Y-53833457D01*
X122426573Y-53832481D01*
X122425602Y-53831326D01*
X122425419Y-53830833D01*
X122424429Y-53826734D01*
X122422080Y-53816638D01*
X122418485Y-53801045D01*
X122413760Y-53780461D01*
X122408020Y-53755387D01*
X122401379Y-53726326D01*
X122393954Y-53693782D01*
X122385858Y-53658258D01*
X122377207Y-53620256D01*
X122368116Y-53580280D01*
X122365022Y-53566666D01*
X122355809Y-53526146D01*
X122346999Y-53487433D01*
X122338705Y-53451031D01*
X122331042Y-53417443D01*
X122324126Y-53387171D01*
X122318072Y-53360718D01*
X122312995Y-53338588D01*
X122309009Y-53321284D01*
X122306231Y-53309308D01*
X122304774Y-53303163D01*
X122304602Y-53302500D01*
X122304019Y-53301484D01*
X122302631Y-53300594D01*
X122300028Y-53299820D01*
X122295798Y-53299155D01*
X122289533Y-53298590D01*
X122280819Y-53298117D01*
X122269248Y-53297728D01*
X122254407Y-53297415D01*
X122235887Y-53297170D01*
X122213276Y-53296985D01*
X122186164Y-53296850D01*
X122154140Y-53296760D01*
X122116793Y-53296704D01*
X122073713Y-53296676D01*
X122024488Y-53296667D01*
X122010000Y-53296666D01*
X121959035Y-53296672D01*
X121914327Y-53296694D01*
X121875463Y-53296742D01*
X121842035Y-53296822D01*
X121813630Y-53296943D01*
X121789838Y-53297114D01*
X121770249Y-53297342D01*
X121754452Y-53297636D01*
X121742036Y-53298003D01*
X121732590Y-53298452D01*
X121725704Y-53298991D01*
X121720968Y-53299628D01*
X121717969Y-53300372D01*
X121716298Y-53301230D01*
X121715544Y-53302210D01*
X121715444Y-53302500D01*
X121714456Y-53306609D01*
X121712111Y-53316711D01*
X121708525Y-53332294D01*
X121703814Y-53352849D01*
X121698096Y-53377865D01*
X121691487Y-53406832D01*
X121684102Y-53439241D01*
X121676059Y-53474582D01*
X121667474Y-53512343D01*
X121658464Y-53552016D01*
X121656652Y-53560000D01*
X121647525Y-53600190D01*
X121638766Y-53638717D01*
X121630496Y-53675055D01*
X121622834Y-53708674D01*
X121615903Y-53739047D01*
X121609821Y-53765645D01*
X121604711Y-53787942D01*
X121600692Y-53805408D01*
X121597885Y-53817517D01*
X121596411Y-53823739D01*
X121596304Y-53824166D01*
X121593076Y-53836666D01*
X121396313Y-53836666D01*
X121355142Y-53836658D01*
X121320145Y-53836622D01*
X121290829Y-53836544D01*
X121266699Y-53836410D01*
X121247263Y-53836205D01*
X121232029Y-53835913D01*
X121220502Y-53835521D01*
X121212189Y-53835013D01*
X121206598Y-53834375D01*
X121203235Y-53833591D01*
X121201607Y-53832648D01*
X121201221Y-53831530D01*
X121201360Y-53830833D01*
X121202259Y-53827329D01*
X121204712Y-53817648D01*
X121208646Y-53802076D01*
X121213989Y-53780901D01*
X121220668Y-53754411D01*
X121228611Y-53722893D01*
X121237745Y-53686634D01*
X121247999Y-53645923D01*
X121259300Y-53601046D01*
X121271576Y-53552291D01*
X121284754Y-53499946D01*
X121298761Y-53444298D01*
X121313527Y-53385635D01*
X121328978Y-53324244D01*
X121345042Y-53260413D01*
X121361647Y-53194428D01*
X121378720Y-53126579D01*
X121396189Y-53057152D01*
X121413982Y-52986434D01*
X121415813Y-52979155D01*
X121786666Y-52979155D01*
X121787925Y-52980011D01*
X121791965Y-52980750D01*
X121799184Y-52981379D01*
X121809975Y-52981904D01*
X121824737Y-52982335D01*
X121843864Y-52982677D01*
X121867752Y-52982940D01*
X121896798Y-52983129D01*
X121931398Y-52983252D01*
X121971947Y-52983317D01*
X122009457Y-52983333D01*
X122232248Y-52983333D01*
X122169382Y-52700833D01*
X122148820Y-52608211D01*
X122129591Y-52521134D01*
X122111717Y-52439709D01*
X122095223Y-52364045D01*
X122080130Y-52294249D01*
X122066464Y-52230430D01*
X122054246Y-52172694D01*
X122043500Y-52121151D01*
X122034249Y-52075908D01*
X122028404Y-52046666D01*
X122023965Y-52024339D01*
X122019855Y-52003926D01*
X122016277Y-51986426D01*
X122013439Y-51972838D01*
X122011545Y-51964163D01*
X122010928Y-51961666D01*
X122009486Y-51961466D01*
X122007317Y-51967363D01*
X122004578Y-51978844D01*
X122002703Y-51988333D01*
X121997166Y-52017882D01*
X121991881Y-52045832D01*
X121986752Y-52072631D01*
X121981683Y-52098724D01*
X121976577Y-52124559D01*
X121971337Y-52150583D01*
X121965868Y-52177241D01*
X121960073Y-52204980D01*
X121953855Y-52234248D01*
X121947119Y-52265490D01*
X121939767Y-52299154D01*
X121931704Y-52335686D01*
X121922832Y-52375532D01*
X121913057Y-52419139D01*
X121902280Y-52466955D01*
X121890407Y-52519425D01*
X121877340Y-52576996D01*
X121862983Y-52640114D01*
X121847239Y-52709228D01*
X121845167Y-52718322D01*
X121835986Y-52758652D01*
X121827248Y-52797138D01*
X121819064Y-52833281D01*
X121811548Y-52866580D01*
X121804810Y-52896535D01*
X121798964Y-52922646D01*
X121794122Y-52944412D01*
X121790394Y-52961334D01*
X121787895Y-52972912D01*
X121786736Y-52978645D01*
X121786666Y-52979155D01*
X121415813Y-52979155D01*
X121432026Y-52914714D01*
X121450250Y-52842278D01*
X121468580Y-52769415D01*
X121486945Y-52696411D01*
X121505271Y-52623554D01*
X121523488Y-52551133D01*
X121541521Y-52479433D01*
X121559300Y-52408743D01*
X121576752Y-52339351D01*
X121593804Y-52271543D01*
X121610385Y-52205608D01*
X121626421Y-52141832D01*
X121641840Y-52080504D01*
X121656571Y-52021910D01*
X121670541Y-51966339D01*
X121683677Y-51914077D01*
X121695907Y-51865413D01*
X121707159Y-51820634D01*
X121717360Y-51780027D01*
X121726439Y-51743880D01*
X121734323Y-51712480D01*
X121740939Y-51686115D01*
X121746215Y-51665073D01*
X121750079Y-51649640D01*
X121750198Y-51649166D01*
X121760825Y-51606666D01*
X122008746Y-51606666D01*
X122048742Y-51606691D01*
G37*
G36*
X118613376Y-45138223D02*
G01*
X118754374Y-45149052D01*
X118894296Y-45166426D01*
X119033033Y-45190325D01*
X119170479Y-45220727D01*
X119306525Y-45257615D01*
X119441063Y-45300966D01*
X119573987Y-45350761D01*
X119705188Y-45406980D01*
X119782740Y-45443641D01*
X119804212Y-45454111D01*
X119823728Y-45463546D01*
X119840486Y-45471565D01*
X119853689Y-45477790D01*
X119862535Y-45481838D01*
X119866225Y-45483331D01*
X119866247Y-45483333D01*
X119869646Y-45481984D01*
X119878553Y-45478103D01*
X119892421Y-45471937D01*
X119910698Y-45463734D01*
X119932836Y-45453743D01*
X119958284Y-45442212D01*
X119986492Y-45429387D01*
X120016912Y-45415518D01*
X120039929Y-45404999D01*
X120071640Y-45390523D01*
X120101573Y-45376916D01*
X120129171Y-45364426D01*
X120153881Y-45353302D01*
X120175148Y-45343791D01*
X120192418Y-45336142D01*
X120205136Y-45330603D01*
X120212749Y-45327423D01*
X120214755Y-45326733D01*
X120216611Y-45329710D01*
X120221029Y-45338349D01*
X120227815Y-45352241D01*
X120236780Y-45370975D01*
X120247731Y-45394143D01*
X120260476Y-45421335D01*
X120274824Y-45452140D01*
X120290582Y-45486150D01*
X120307561Y-45522954D01*
X120325567Y-45562143D01*
X120344409Y-45603307D01*
X120354691Y-45625834D01*
X120491050Y-45924869D01*
X120574951Y-46008267D01*
X120622882Y-46056618D01*
X120666645Y-46102319D01*
X120707436Y-46146681D01*
X120746449Y-46191016D01*
X120784881Y-46236634D01*
X120799426Y-46254388D01*
X120808796Y-46265560D01*
X120816429Y-46274002D01*
X120821516Y-46278866D01*
X120823255Y-46279388D01*
X120822779Y-46275659D01*
X120821402Y-46265681D01*
X120819173Y-46249803D01*
X120816143Y-46228373D01*
X120812361Y-46201740D01*
X120807877Y-46170255D01*
X120802741Y-46134264D01*
X120797003Y-46094119D01*
X120790713Y-46050167D01*
X120783920Y-46002757D01*
X120776676Y-45952239D01*
X120769028Y-45898962D01*
X120761028Y-45843275D01*
X120752725Y-45785526D01*
X120745455Y-45735000D01*
X120736956Y-45675819D01*
X120728752Y-45618430D01*
X120720891Y-45563177D01*
X120713420Y-45510409D01*
X120706387Y-45460472D01*
X120699840Y-45413712D01*
X120693828Y-45370478D01*
X120688397Y-45331114D01*
X120683596Y-45295969D01*
X120679473Y-45265388D01*
X120676076Y-45239720D01*
X120673452Y-45219310D01*
X120671649Y-45204506D01*
X120670715Y-45195654D01*
X120670644Y-45193067D01*
X120674385Y-45192247D01*
X120683980Y-45190620D01*
X120698722Y-45188288D01*
X120717906Y-45185352D01*
X120740825Y-45181913D01*
X120766773Y-45178072D01*
X120795042Y-45173931D01*
X120824927Y-45169592D01*
X120855720Y-45165154D01*
X120886716Y-45160719D01*
X120917208Y-45156389D01*
X120946490Y-45152265D01*
X120973854Y-45148447D01*
X120998594Y-45145038D01*
X121020005Y-45142138D01*
X121037379Y-45139849D01*
X121050010Y-45138272D01*
X121057191Y-45137507D01*
X121058597Y-45137486D01*
X121059170Y-45140845D01*
X121060648Y-45150520D01*
X121062989Y-45166225D01*
X121066153Y-45187678D01*
X121070097Y-45214594D01*
X121074782Y-45246690D01*
X121080166Y-45283680D01*
X121086208Y-45325282D01*
X121092867Y-45371211D01*
X121100101Y-45421184D01*
X121107870Y-45474916D01*
X121116132Y-45532123D01*
X121124846Y-45592521D01*
X121133971Y-45655827D01*
X121143466Y-45721756D01*
X121153290Y-45790025D01*
X121163401Y-45860348D01*
X121173759Y-45932444D01*
X121174868Y-45940162D01*
X121185270Y-46012572D01*
X121195440Y-46083316D01*
X121205337Y-46152106D01*
X121214919Y-46218652D01*
X121224143Y-46282666D01*
X121232968Y-46343860D01*
X121241353Y-46401943D01*
X121249255Y-46456628D01*
X121256633Y-46507625D01*
X121263444Y-46554646D01*
X121269647Y-46597402D01*
X121275201Y-46635603D01*
X121280062Y-46668962D01*
X121284191Y-46697189D01*
X121287543Y-46719995D01*
X121290079Y-46737092D01*
X121291756Y-46748190D01*
X121292532Y-46753001D01*
X121292554Y-46753105D01*
X121293110Y-46752584D01*
X121294185Y-46748221D01*
X121295801Y-46739864D01*
X121297981Y-46727357D01*
X121300749Y-46710544D01*
X121304128Y-46689271D01*
X121308141Y-46663384D01*
X121312811Y-46632726D01*
X121318160Y-46597143D01*
X121324213Y-46556480D01*
X121330992Y-46510582D01*
X121338520Y-46459295D01*
X121346820Y-46402462D01*
X121355916Y-46339929D01*
X121365830Y-46271542D01*
X121376586Y-46197145D01*
X121388207Y-46116583D01*
X121400715Y-46029701D01*
X121411627Y-45953800D01*
X121422081Y-45881083D01*
X121432300Y-45810089D01*
X121442243Y-45741102D01*
X121451868Y-45674406D01*
X121461134Y-45610283D01*
X121470000Y-45549018D01*
X121478425Y-45490893D01*
X121486367Y-45436192D01*
X121493785Y-45385199D01*
X121500638Y-45338196D01*
X121506884Y-45295467D01*
X121512482Y-45257297D01*
X121517392Y-45223967D01*
X121521570Y-45195761D01*
X121524977Y-45172964D01*
X121527572Y-45155857D01*
X121529311Y-45144726D01*
X121530156Y-45139852D01*
X121530214Y-45139652D01*
X121534013Y-45139327D01*
X121544280Y-45140051D01*
X121560901Y-45141807D01*
X121583763Y-45144583D01*
X121612751Y-45148364D01*
X121647752Y-45153135D01*
X121688653Y-45158883D01*
X121725315Y-45164142D01*
X121767751Y-45170308D01*
X121803984Y-45175653D01*
X121834420Y-45180244D01*
X121859464Y-45184149D01*
X121879519Y-45187436D01*
X121894991Y-45190175D01*
X121906284Y-45192433D01*
X121913804Y-45194279D01*
X121917954Y-45195780D01*
X121919138Y-45196850D01*
X121918744Y-45200539D01*
X121917438Y-45210542D01*
X121915260Y-45226575D01*
X121912252Y-45248352D01*
X121908453Y-45275590D01*
X121903904Y-45308004D01*
X121898646Y-45345310D01*
X121892717Y-45387223D01*
X121886160Y-45433460D01*
X121879015Y-45483734D01*
X121871321Y-45537763D01*
X121863119Y-45595261D01*
X121854450Y-45655945D01*
X121845354Y-45719529D01*
X121835872Y-45785730D01*
X121826043Y-45854262D01*
X121815908Y-45924842D01*
X121805508Y-45997185D01*
X121803664Y-46010000D01*
X121793227Y-46082567D01*
X121783047Y-46153391D01*
X121773164Y-46222190D01*
X121763620Y-46288681D01*
X121754454Y-46352582D01*
X121745706Y-46413610D01*
X121737417Y-46471482D01*
X121729628Y-46525916D01*
X121722379Y-46576629D01*
X121715710Y-46623339D01*
X121709661Y-46665763D01*
X121704273Y-46703619D01*
X121699586Y-46736624D01*
X121695641Y-46764495D01*
X121692478Y-46786950D01*
X121690137Y-46803707D01*
X121688659Y-46814482D01*
X121688084Y-46818994D01*
X121688080Y-46819120D01*
X121689513Y-46816213D01*
X121693583Y-46807525D01*
X121700159Y-46793341D01*
X121709111Y-46773945D01*
X121720309Y-46749621D01*
X121733622Y-46720655D01*
X121748920Y-46687330D01*
X121766072Y-46649930D01*
X121784948Y-46608741D01*
X121805418Y-46564047D01*
X121827352Y-46516131D01*
X121850618Y-46465280D01*
X121875087Y-46411776D01*
X121900628Y-46355905D01*
X121927111Y-46297950D01*
X121954406Y-46238198D01*
X121969968Y-46204120D01*
X122009397Y-46117767D01*
X122046152Y-46037272D01*
X122080327Y-45962430D01*
X122112016Y-45893035D01*
X122141316Y-45828882D01*
X122168319Y-45769764D01*
X122193122Y-45715476D01*
X122215819Y-45665812D01*
X122236504Y-45620566D01*
X122255272Y-45579533D01*
X122272218Y-45542507D01*
X122287437Y-45509281D01*
X122301024Y-45479651D01*
X122313073Y-45453411D01*
X122323678Y-45430355D01*
X122332936Y-45410276D01*
X122340939Y-45392970D01*
X122347784Y-45378231D01*
X122353565Y-45365853D01*
X122358376Y-45355629D01*
X122362313Y-45347355D01*
X122365470Y-45340825D01*
X122367941Y-45335833D01*
X122369822Y-45332173D01*
X122371207Y-45329639D01*
X122372192Y-45328026D01*
X122372870Y-45327128D01*
X122373336Y-45326739D01*
X122373686Y-45326654D01*
X122373988Y-45326666D01*
X122377978Y-45328020D01*
X122387272Y-45331882D01*
X122401222Y-45337953D01*
X122419182Y-45345934D01*
X122440503Y-45355525D01*
X122464539Y-45366427D01*
X122490641Y-45378340D01*
X122518163Y-45390966D01*
X122546458Y-45404004D01*
X122574877Y-45417156D01*
X122602773Y-45430123D01*
X122629499Y-45442604D01*
X122654407Y-45454300D01*
X122676851Y-45464913D01*
X122696182Y-45474142D01*
X122711753Y-45481689D01*
X122722917Y-45487254D01*
X122729027Y-45490538D01*
X122730000Y-45491275D01*
X122728634Y-45494581D01*
X122724616Y-45503685D01*
X122718067Y-45518322D01*
X122709108Y-45538227D01*
X122697859Y-45563135D01*
X122684440Y-45592781D01*
X122668971Y-45626900D01*
X122651574Y-45665227D01*
X122632368Y-45707497D01*
X122611475Y-45753444D01*
X122589014Y-45802805D01*
X122565106Y-45855313D01*
X122539871Y-45910704D01*
X122513431Y-45968713D01*
X122485905Y-46029074D01*
X122457414Y-46091523D01*
X122428078Y-46155795D01*
X122401105Y-46214866D01*
X122370964Y-46280862D01*
X122341473Y-46345437D01*
X122312758Y-46408314D01*
X122284945Y-46469218D01*
X122258160Y-46527874D01*
X122232528Y-46584004D01*
X122208176Y-46637335D01*
X122185229Y-46687589D01*
X122163814Y-46734492D01*
X122144056Y-46777768D01*
X122126081Y-46817140D01*
X122110015Y-46852333D01*
X122095984Y-46883072D01*
X122084113Y-46909080D01*
X122074530Y-46930083D01*
X122067359Y-46945803D01*
X122062726Y-46955966D01*
X122060892Y-46960000D01*
X122055544Y-46971985D01*
X122052874Y-46978696D01*
X122052733Y-46980895D01*
X122054973Y-46979347D01*
X122057662Y-46976666D01*
X122060549Y-46973423D01*
X122067610Y-46965360D01*
X122078652Y-46952698D01*
X122093485Y-46935656D01*
X122111917Y-46914456D01*
X122133757Y-46889317D01*
X122158814Y-46860461D01*
X122186898Y-46828106D01*
X122217816Y-46792474D01*
X122251378Y-46753784D01*
X122287392Y-46712258D01*
X122325669Y-46668114D01*
X122366015Y-46621575D01*
X122408241Y-46572859D01*
X122452155Y-46522188D01*
X122497566Y-46469781D01*
X122544282Y-46415858D01*
X122592114Y-46360641D01*
X122596499Y-46355579D01*
X122653629Y-46289628D01*
X122706560Y-46228539D01*
X122755452Y-46172131D01*
X122800464Y-46120222D01*
X122841758Y-46072631D01*
X122879492Y-46029177D01*
X122913828Y-45989678D01*
X122944924Y-45953952D01*
X122972942Y-45921819D01*
X122998041Y-45893096D01*
X123020381Y-45867602D01*
X123040123Y-45845156D01*
X123057426Y-45825576D01*
X123072451Y-45808680D01*
X123085357Y-45794288D01*
X123096305Y-45782218D01*
X123105455Y-45772288D01*
X123112966Y-45764317D01*
X123119000Y-45758123D01*
X123123715Y-45753525D01*
X123127272Y-45750342D01*
X123129832Y-45748391D01*
X123131553Y-45747492D01*
X123132597Y-45747463D01*
X123132790Y-45747587D01*
X123141164Y-45754794D01*
X123153369Y-45765319D01*
X123168857Y-45778687D01*
X123187078Y-45794421D01*
X123207482Y-45812048D01*
X123229520Y-45831093D01*
X123252642Y-45851079D01*
X123276300Y-45871532D01*
X123299944Y-45891977D01*
X123323024Y-45911939D01*
X123344991Y-45930943D01*
X123365295Y-45948513D01*
X123383388Y-45964174D01*
X123398719Y-45977452D01*
X123410739Y-45987871D01*
X123418899Y-45994956D01*
X123422650Y-45998233D01*
X123422802Y-45998370D01*
X123422647Y-45999569D01*
X123421070Y-46002338D01*
X123417926Y-46006845D01*
X123413072Y-46013257D01*
X123406365Y-46021743D01*
X123397660Y-46032471D01*
X123386815Y-46045611D01*
X123373685Y-46061329D01*
X123358128Y-46079794D01*
X123339999Y-46101175D01*
X123319156Y-46125641D01*
X123295453Y-46153358D01*
X123268749Y-46184496D01*
X123238899Y-46219223D01*
X123205759Y-46257708D01*
X123169187Y-46300118D01*
X123129038Y-46346622D01*
X123085169Y-46397388D01*
X123037437Y-46452585D01*
X122985697Y-46512380D01*
X122929807Y-46576943D01*
X122896489Y-46615421D01*
X122848556Y-46670769D01*
X122801716Y-46724851D01*
X122756160Y-46777446D01*
X122712080Y-46828334D01*
X122669668Y-46877294D01*
X122629114Y-46924104D01*
X122590610Y-46968544D01*
X122554347Y-47010394D01*
X122520517Y-47049431D01*
X122489312Y-47085436D01*
X122460922Y-47118187D01*
X122435539Y-47147464D01*
X122413354Y-47173046D01*
X122394560Y-47194711D01*
X122379346Y-47212240D01*
X122367906Y-47225411D01*
X122360429Y-47234003D01*
X122357108Y-47237796D01*
X122357020Y-47237894D01*
X122355773Y-47239154D01*
X122354244Y-47240563D01*
X122352629Y-47241995D01*
X122351126Y-47243325D01*
X122349932Y-47244427D01*
X122349243Y-47245176D01*
X122349258Y-47245446D01*
X122350172Y-47245113D01*
X122352184Y-47244049D01*
X122355489Y-47242131D01*
X122360286Y-47239232D01*
X122366772Y-47235227D01*
X122375143Y-47229991D01*
X122385596Y-47223397D01*
X122398329Y-47215322D01*
X122413539Y-47205639D01*
X122431423Y-47194222D01*
X122452178Y-47180947D01*
X122476001Y-47165687D01*
X122503089Y-47148318D01*
X122533639Y-47128714D01*
X122567849Y-47106749D01*
X122605915Y-47082298D01*
X122648035Y-47055236D01*
X122694405Y-47025437D01*
X122745223Y-46992776D01*
X122800686Y-46957126D01*
X122860991Y-46918364D01*
X122926335Y-46876362D01*
X122996915Y-46830996D01*
X123064744Y-46787401D01*
X123145044Y-46735810D01*
X123219835Y-46687798D01*
X123289195Y-46643314D01*
X123353208Y-46602306D01*
X123411953Y-46564723D01*
X123465512Y-46530514D01*
X123513966Y-46499627D01*
X123557396Y-46472010D01*
X123595882Y-46447613D01*
X123629507Y-46426384D01*
X123658350Y-46408272D01*
X123682494Y-46393225D01*
X123702018Y-46381191D01*
X123717005Y-46372120D01*
X123727535Y-46365960D01*
X123733689Y-46362660D01*
X123735521Y-46362048D01*
X123738222Y-46365417D01*
X123744045Y-46373756D01*
X123752603Y-46386461D01*
X123763508Y-46402925D01*
X123776374Y-46422546D01*
X123790812Y-46444717D01*
X123806435Y-46468834D01*
X123822855Y-46494293D01*
X123839686Y-46520489D01*
X123856539Y-46546816D01*
X123873027Y-46572671D01*
X123888763Y-46597449D01*
X123903359Y-46620545D01*
X123916427Y-46641353D01*
X123927581Y-46659271D01*
X123936432Y-46673692D01*
X123942594Y-46684012D01*
X123945678Y-46689626D01*
X123945958Y-46690458D01*
X123943102Y-46692504D01*
X123934876Y-46697996D01*
X123921520Y-46706779D01*
X123903273Y-46718699D01*
X123880376Y-46733599D01*
X123853068Y-46751325D01*
X123821590Y-46771723D01*
X123786181Y-46794636D01*
X123747082Y-46819911D01*
X123704531Y-46847391D01*
X123658770Y-46876923D01*
X123610039Y-46908350D01*
X123558576Y-46941518D01*
X123504623Y-46976272D01*
X123448419Y-47012457D01*
X123390204Y-47049917D01*
X123330218Y-47088499D01*
X123268701Y-47128046D01*
X123255196Y-47136725D01*
X123193427Y-47176426D01*
X123133160Y-47215173D01*
X123074634Y-47252812D01*
X123018087Y-47289189D01*
X122963757Y-47324150D01*
X122911882Y-47357543D01*
X122862702Y-47389212D01*
X122816454Y-47419006D01*
X122773377Y-47446768D01*
X122733710Y-47472347D01*
X122697690Y-47495588D01*
X122665557Y-47516338D01*
X122637549Y-47534442D01*
X122613903Y-47549748D01*
X122594860Y-47562101D01*
X122580656Y-47571347D01*
X122571531Y-47577334D01*
X122567723Y-47579907D01*
X122567624Y-47579999D01*
X122570975Y-47579073D01*
X122580448Y-47576348D01*
X122595769Y-47571904D01*
X122616662Y-47565822D01*
X122642853Y-47558183D01*
X122674068Y-47549066D01*
X122710033Y-47538551D01*
X122750472Y-47526721D01*
X122795111Y-47513653D01*
X122843677Y-47499430D01*
X122895893Y-47484132D01*
X122951486Y-47467838D01*
X123010181Y-47450630D01*
X123071704Y-47432587D01*
X123135781Y-47413790D01*
X123202135Y-47394320D01*
X123270494Y-47374256D01*
X123340583Y-47353679D01*
X123353713Y-47349824D01*
X123424109Y-47329164D01*
X123492839Y-47309014D01*
X123559626Y-47289453D01*
X123624197Y-47270562D01*
X123686275Y-47252420D01*
X123745586Y-47235108D01*
X123801854Y-47218704D01*
X123854804Y-47203290D01*
X123904161Y-47188945D01*
X123949650Y-47175749D01*
X123990995Y-47163781D01*
X124027922Y-47153122D01*
X124060154Y-47143852D01*
X124087418Y-47136050D01*
X124109436Y-47129797D01*
X124125936Y-47125172D01*
X124136640Y-47122255D01*
X124141275Y-47121126D01*
X124141444Y-47121120D01*
X124142881Y-47124413D01*
X124145975Y-47133420D01*
X124150521Y-47147454D01*
X124156313Y-47165828D01*
X124163147Y-47187855D01*
X124170815Y-47212848D01*
X124179114Y-47240120D01*
X124187837Y-47268984D01*
X124196779Y-47298752D01*
X124205734Y-47328739D01*
X124214496Y-47358256D01*
X124222861Y-47386617D01*
X124230623Y-47413134D01*
X124237576Y-47437122D01*
X124243515Y-47457891D01*
X124248234Y-47474757D01*
X124251528Y-47487031D01*
X124253190Y-47494027D01*
X124253353Y-47495224D01*
X124250197Y-47496469D01*
X124240916Y-47499504D01*
X124225783Y-47504249D01*
X124205069Y-47510621D01*
X124179049Y-47518541D01*
X124147994Y-47527926D01*
X124112178Y-47538695D01*
X124071874Y-47550766D01*
X124027354Y-47564059D01*
X123978892Y-47578493D01*
X123926760Y-47593984D01*
X123871231Y-47610454D01*
X123812578Y-47627819D01*
X123751074Y-47645999D01*
X123686992Y-47664912D01*
X123620604Y-47684478D01*
X123552184Y-47704614D01*
X123482003Y-47725239D01*
X123465025Y-47730224D01*
X122676718Y-47961666D01*
X123500025Y-47962506D01*
X124323333Y-47963346D01*
X124323333Y-48161666D01*
X124323333Y-48359986D01*
X123502080Y-48360826D01*
X122680827Y-48361666D01*
X123463962Y-48591603D01*
X123534333Y-48612269D01*
X123603037Y-48632456D01*
X123669797Y-48652081D01*
X123734338Y-48671064D01*
X123796386Y-48689322D01*
X123855664Y-48706775D01*
X123911897Y-48723342D01*
X123964809Y-48738940D01*
X124014126Y-48753490D01*
X124059572Y-48766909D01*
X124100871Y-48779116D01*
X124137747Y-48790030D01*
X124169926Y-48799570D01*
X124197133Y-48807654D01*
X124219090Y-48814201D01*
X124235524Y-48819130D01*
X124246158Y-48822359D01*
X124250718Y-48823807D01*
X124250869Y-48823870D01*
X124251003Y-48827023D01*
X124249459Y-48835401D01*
X124246195Y-48849163D01*
X124241168Y-48868469D01*
X124234336Y-48893477D01*
X124225655Y-48924347D01*
X124215082Y-48961236D01*
X124202577Y-49004304D01*
X124200251Y-49012267D01*
X124190301Y-49046214D01*
X124180858Y-49078252D01*
X124172096Y-49107807D01*
X124164186Y-49134306D01*
X124157301Y-49157178D01*
X124151612Y-49175848D01*
X124147293Y-49189746D01*
X124144515Y-49198298D01*
X124143497Y-49200933D01*
X124140131Y-49200240D01*
X124130644Y-49197743D01*
X124115311Y-49193521D01*
X124094406Y-49187653D01*
X124068205Y-49180219D01*
X124036980Y-49171299D01*
X124001007Y-49160971D01*
X123960561Y-49149316D01*
X123915915Y-49136412D01*
X123867343Y-49122340D01*
X123815122Y-49107178D01*
X123759524Y-49091005D01*
X123700824Y-49073903D01*
X123639297Y-49055949D01*
X123575218Y-49037223D01*
X123508859Y-49017806D01*
X123440497Y-48997775D01*
X123370406Y-48977211D01*
X123356872Y-48973238D01*
X123286494Y-48952577D01*
X123217802Y-48932424D01*
X123151071Y-48912857D01*
X123086573Y-48893957D01*
X123024584Y-48875804D01*
X122965376Y-48858477D01*
X122909224Y-48842057D01*
X122856403Y-48826623D01*
X122807185Y-48812255D01*
X122761844Y-48799034D01*
X122720656Y-48787038D01*
X122683893Y-48776349D01*
X122651829Y-48767046D01*
X122624739Y-48759208D01*
X122602896Y-48752917D01*
X122586575Y-48748251D01*
X122576049Y-48745290D01*
X122571592Y-48744116D01*
X122571453Y-48744101D01*
X122574113Y-48745982D01*
X122582143Y-48751310D01*
X122595304Y-48759932D01*
X122613356Y-48771693D01*
X122636061Y-48786438D01*
X122663179Y-48804013D01*
X122694470Y-48824264D01*
X122729695Y-48847035D01*
X122768615Y-48872173D01*
X122810991Y-48899522D01*
X122856583Y-48928929D01*
X122905152Y-48960239D01*
X122956458Y-48993297D01*
X123010263Y-49027949D01*
X123066327Y-49064040D01*
X123124410Y-49101416D01*
X123184274Y-49139922D01*
X123245678Y-49179404D01*
X123257647Y-49187098D01*
X123334819Y-49236726D01*
X123407877Y-49283752D01*
X123476725Y-49328112D01*
X123541264Y-49369743D01*
X123601396Y-49408581D01*
X123657024Y-49444563D01*
X123708051Y-49477626D01*
X123754378Y-49507705D01*
X123795908Y-49534737D01*
X123832543Y-49558658D01*
X123864186Y-49579406D01*
X123890738Y-49596916D01*
X123912103Y-49611126D01*
X123928183Y-49621970D01*
X123938879Y-49629387D01*
X123944095Y-49633313D01*
X123944628Y-49633919D01*
X123942802Y-49637566D01*
X123937677Y-49646298D01*
X123929574Y-49659604D01*
X123918812Y-49676971D01*
X123905714Y-49697887D01*
X123890599Y-49721840D01*
X123873789Y-49748316D01*
X123855603Y-49776804D01*
X123839915Y-49801265D01*
X123814732Y-49840305D01*
X123792781Y-49874023D01*
X123774098Y-49902367D01*
X123758721Y-49925280D01*
X123746687Y-49942709D01*
X123738033Y-49954598D01*
X123732796Y-49960893D01*
X123731193Y-49961946D01*
X123728032Y-49960016D01*
X123719505Y-49954635D01*
X123705856Y-49945959D01*
X123687326Y-49934142D01*
X123664157Y-49919340D01*
X123636591Y-49901709D01*
X123604871Y-49881402D01*
X123569239Y-49858576D01*
X123529937Y-49833386D01*
X123487206Y-49805987D01*
X123441290Y-49776534D01*
X123392429Y-49745183D01*
X123340868Y-49712088D01*
X123286846Y-49677406D01*
X123230607Y-49641290D01*
X123172393Y-49603897D01*
X123112446Y-49565381D01*
X123051008Y-49525898D01*
X123041518Y-49519799D01*
X122979923Y-49480217D01*
X122919808Y-49441600D01*
X122861411Y-49404101D01*
X122804974Y-49367875D01*
X122750737Y-49333075D01*
X122698941Y-49299856D01*
X122649827Y-49268370D01*
X122603633Y-49238774D01*
X122560603Y-49211219D01*
X122520974Y-49185861D01*
X122484989Y-49162852D01*
X122452888Y-49142348D01*
X122424911Y-49124502D01*
X122401299Y-49109468D01*
X122382293Y-49097399D01*
X122368132Y-49088451D01*
X122359057Y-49082777D01*
X122355309Y-49080530D01*
X122355219Y-49080499D01*
X122357282Y-49083087D01*
X122363528Y-49090494D01*
X122373771Y-49102504D01*
X122387825Y-49118903D01*
X122405503Y-49139475D01*
X122426619Y-49164004D01*
X122450988Y-49192274D01*
X122478422Y-49224070D01*
X122508735Y-49259177D01*
X122541742Y-49297378D01*
X122577255Y-49338458D01*
X122615090Y-49382201D01*
X122655059Y-49428392D01*
X122696976Y-49476815D01*
X122740655Y-49527255D01*
X122785910Y-49579496D01*
X122832554Y-49633323D01*
X122880401Y-49688519D01*
X122890356Y-49700000D01*
X122938437Y-49755459D01*
X122985359Y-49809597D01*
X123030936Y-49862196D01*
X123074982Y-49913043D01*
X123117309Y-49961919D01*
X123157731Y-50008610D01*
X123196061Y-50052900D01*
X123232113Y-50094573D01*
X123265699Y-50133412D01*
X123296635Y-50169203D01*
X123324732Y-50201729D01*
X123349804Y-50230775D01*
X123371665Y-50256123D01*
X123390128Y-50277560D01*
X123405006Y-50294868D01*
X123416113Y-50307833D01*
X123423262Y-50316237D01*
X123426267Y-50319865D01*
X123426354Y-50320000D01*
X123423842Y-50322703D01*
X123416776Y-50329236D01*
X123405702Y-50339132D01*
X123391164Y-50351925D01*
X123373709Y-50367149D01*
X123353880Y-50384339D01*
X123332224Y-50403027D01*
X123309284Y-50422749D01*
X123285607Y-50443038D01*
X123261738Y-50463428D01*
X123238221Y-50483454D01*
X123215602Y-50502649D01*
X123194426Y-50520547D01*
X123175238Y-50536682D01*
X123158583Y-50550589D01*
X123145006Y-50561802D01*
X123135053Y-50569853D01*
X123129269Y-50574278D01*
X123128038Y-50575000D01*
X123125463Y-50572514D01*
X123118714Y-50565202D01*
X123107982Y-50553278D01*
X123093452Y-50536957D01*
X123075314Y-50516454D01*
X123053756Y-50491986D01*
X123028965Y-50463767D01*
X123001131Y-50432012D01*
X122970440Y-50396937D01*
X122937082Y-50358756D01*
X122901245Y-50317686D01*
X122863116Y-50273941D01*
X122822884Y-50227736D01*
X122780736Y-50179287D01*
X122736862Y-50128810D01*
X122691449Y-50076518D01*
X122644686Y-50022628D01*
X122596760Y-49967355D01*
X122586052Y-49955000D01*
X122537974Y-49899531D01*
X122491067Y-49845434D01*
X122445515Y-49792921D01*
X122401503Y-49742205D01*
X122359217Y-49693498D01*
X122318842Y-49647015D01*
X122280564Y-49602967D01*
X122244567Y-49561567D01*
X122211036Y-49523028D01*
X122180158Y-49487563D01*
X122152117Y-49455384D01*
X122127098Y-49426705D01*
X122105287Y-49401739D01*
X122086868Y-49380697D01*
X122072028Y-49363793D01*
X122060951Y-49351240D01*
X122053822Y-49343250D01*
X122050827Y-49340036D01*
X122050744Y-49340000D01*
X122052289Y-49343442D01*
X122056485Y-49352686D01*
X122063213Y-49367470D01*
X122072353Y-49387532D01*
X122083785Y-49412610D01*
X122097391Y-49442441D01*
X122113050Y-49476765D01*
X122130642Y-49515318D01*
X122150050Y-49557840D01*
X122171152Y-49604068D01*
X122193829Y-49653740D01*
X122217961Y-49706595D01*
X122243430Y-49762370D01*
X122270116Y-49820803D01*
X122297898Y-49881633D01*
X122326658Y-49944598D01*
X122356276Y-50009435D01*
X122386632Y-50075883D01*
X122391359Y-50086230D01*
X122421801Y-50152879D01*
X122451508Y-50217950D01*
X122480360Y-50281180D01*
X122508238Y-50342308D01*
X122535025Y-50401074D01*
X122560601Y-50457215D01*
X122584848Y-50510470D01*
X122607646Y-50560578D01*
X122628877Y-50607278D01*
X122648423Y-50650309D01*
X122666164Y-50689409D01*
X122681982Y-50724317D01*
X122695759Y-50754772D01*
X122707374Y-50780512D01*
X122716711Y-50801276D01*
X122723649Y-50816802D01*
X122728071Y-50826831D01*
X122729857Y-50831099D01*
X122729890Y-50831230D01*
X122726950Y-50833036D01*
X122718590Y-50837302D01*
X122705456Y-50843728D01*
X122688198Y-50852013D01*
X122667464Y-50861857D01*
X122643900Y-50872960D01*
X122618155Y-50885021D01*
X122590878Y-50897741D01*
X122562715Y-50910818D01*
X122534314Y-50923953D01*
X122506325Y-50936846D01*
X122479393Y-50949196D01*
X122454169Y-50960702D01*
X122431298Y-50971065D01*
X122411430Y-50979984D01*
X122395212Y-50987160D01*
X122383292Y-50992291D01*
X122376490Y-50995016D01*
X122375423Y-50994130D01*
X122373342Y-50990924D01*
X122370162Y-50985207D01*
X122365794Y-50976792D01*
X122360151Y-50965489D01*
X122353145Y-50951110D01*
X122344689Y-50933467D01*
X122334694Y-50912371D01*
X122323073Y-50887632D01*
X122309739Y-50859063D01*
X122294603Y-50826475D01*
X122277579Y-50789678D01*
X122258578Y-50748485D01*
X122237513Y-50702706D01*
X122214296Y-50652153D01*
X122188840Y-50596638D01*
X122161056Y-50535971D01*
X122130858Y-50469964D01*
X122098158Y-50398429D01*
X122062867Y-50321175D01*
X122029824Y-50248806D01*
X121999274Y-50181892D01*
X121969452Y-50116587D01*
X121940477Y-50053152D01*
X121912467Y-49991843D01*
X121885539Y-49932919D01*
X121859812Y-49876639D01*
X121835405Y-49823260D01*
X121812435Y-49773041D01*
X121791020Y-49726241D01*
X121771280Y-49683116D01*
X121753331Y-49643926D01*
X121737293Y-49608929D01*
X121723283Y-49578383D01*
X121711419Y-49552547D01*
X121701821Y-49531678D01*
X121694605Y-49516035D01*
X121689891Y-49505877D01*
X121687796Y-49501460D01*
X121687695Y-49501284D01*
X121688106Y-49504586D01*
X121689427Y-49514204D01*
X121691617Y-49529858D01*
X121694637Y-49551265D01*
X121698446Y-49578144D01*
X121703004Y-49610214D01*
X121708271Y-49647191D01*
X121714206Y-49688795D01*
X121720769Y-49734744D01*
X121727920Y-49784756D01*
X121735619Y-49838550D01*
X121743825Y-49895843D01*
X121752498Y-49956354D01*
X121761598Y-50019802D01*
X121771084Y-50085904D01*
X121780917Y-50154380D01*
X121791056Y-50224946D01*
X121801460Y-50297322D01*
X121803918Y-50314414D01*
X121814376Y-50387187D01*
X121824568Y-50458225D01*
X121834454Y-50527246D01*
X121843995Y-50593968D01*
X121853151Y-50658109D01*
X121861882Y-50719386D01*
X121870148Y-50777517D01*
X121877909Y-50832220D01*
X121885125Y-50883212D01*
X121891757Y-50930212D01*
X121897764Y-50972936D01*
X121903107Y-51011104D01*
X121907746Y-51044431D01*
X121911641Y-51072637D01*
X121914751Y-51095439D01*
X121917038Y-51112554D01*
X121918461Y-51123701D01*
X121918981Y-51128596D01*
X121918968Y-51128808D01*
X121915266Y-51129763D01*
X121905702Y-51131487D01*
X121890983Y-51133883D01*
X121871815Y-51136852D01*
X121848903Y-51140294D01*
X121822953Y-51144112D01*
X121794671Y-51148206D01*
X121764762Y-51152479D01*
X121733934Y-51156830D01*
X121702891Y-51161162D01*
X121672339Y-51165376D01*
X121642985Y-51169373D01*
X121615534Y-51173054D01*
X121590691Y-51176321D01*
X121569164Y-51179075D01*
X121551657Y-51181218D01*
X121538876Y-51182649D01*
X121531528Y-51183272D01*
X121530000Y-51183197D01*
X121529382Y-51179710D01*
X121527860Y-51169906D01*
X121525474Y-51154068D01*
X121522265Y-51132480D01*
X121518274Y-51105424D01*
X121513543Y-51073184D01*
X121508112Y-51036041D01*
X121502022Y-50994279D01*
X121495316Y-50948180D01*
X121488033Y-50898029D01*
X121480215Y-50844106D01*
X121471903Y-50786696D01*
X121463138Y-50726081D01*
X121453961Y-50662543D01*
X121444414Y-50596367D01*
X121434537Y-50527834D01*
X121424371Y-50457228D01*
X121413958Y-50384831D01*
X121411669Y-50368908D01*
X121401217Y-50296207D01*
X121391009Y-50225261D01*
X121381086Y-50156350D01*
X121371490Y-50089755D01*
X121362261Y-50025758D01*
X121353440Y-49964641D01*
X121345067Y-49906683D01*
X121337184Y-49852168D01*
X121329831Y-49801375D01*
X121323049Y-49754587D01*
X121316878Y-49712084D01*
X121311360Y-49674147D01*
X121306534Y-49641059D01*
X121302443Y-49613100D01*
X121299126Y-49590552D01*
X121296625Y-49573695D01*
X121294979Y-49562811D01*
X121294231Y-49558182D01*
X121294190Y-49558031D01*
X121293649Y-49561357D01*
X121292201Y-49571001D01*
X121289887Y-49586680D01*
X121286747Y-49608112D01*
X121282823Y-49635017D01*
X121278154Y-49667111D01*
X121272783Y-49704114D01*
X121266749Y-49745743D01*
X121260093Y-49791717D01*
X121252856Y-49841754D01*
X121245080Y-49895572D01*
X121236804Y-49952889D01*
X121228069Y-50013424D01*
X121218917Y-50076894D01*
X121209387Y-50143019D01*
X121199521Y-50211516D01*
X121189360Y-50282104D01*
X121178944Y-50354500D01*
X121176443Y-50371890D01*
X121165973Y-50444670D01*
X121155751Y-50515707D01*
X121145815Y-50584719D01*
X121136208Y-50651425D01*
X121126969Y-50715542D01*
X121118139Y-50776789D01*
X121109760Y-50834884D01*
X121101871Y-50889546D01*
X121094514Y-50940493D01*
X121087729Y-50987442D01*
X121081557Y-51030114D01*
X121076039Y-51068225D01*
X121071215Y-51101494D01*
X121067125Y-51129640D01*
X121063812Y-51152380D01*
X121061314Y-51169434D01*
X121059674Y-51180519D01*
X121058931Y-51185353D01*
X121058891Y-51185552D01*
X121055584Y-51185211D01*
X121046383Y-51184003D01*
X121031990Y-51182029D01*
X121013106Y-51179392D01*
X120990433Y-51176191D01*
X120964673Y-51172530D01*
X120936529Y-51168508D01*
X120906701Y-51164228D01*
X120875892Y-51159791D01*
X120844803Y-51155298D01*
X120814136Y-51150851D01*
X120784594Y-51146551D01*
X120756877Y-51142499D01*
X120731688Y-51138797D01*
X120709728Y-51135546D01*
X120691700Y-51132848D01*
X120678305Y-51130804D01*
X120670245Y-51129515D01*
X120668111Y-51129097D01*
X120668508Y-51125771D01*
X120669810Y-51116192D01*
X120671967Y-51100708D01*
X120674929Y-51079662D01*
X120678647Y-51053402D01*
X120683071Y-51022274D01*
X120688153Y-50986622D01*
X120693843Y-50946794D01*
X120700091Y-50903135D01*
X120706848Y-50855990D01*
X120714065Y-50805706D01*
X120721692Y-50752629D01*
X120729679Y-50697104D01*
X120737978Y-50639477D01*
X120745351Y-50588333D01*
X120753885Y-50529103D01*
X120762147Y-50471634D01*
X120770090Y-50416276D01*
X120777663Y-50363378D01*
X120784816Y-50313289D01*
X120791501Y-50266359D01*
X120797668Y-50222936D01*
X120803268Y-50183369D01*
X120808251Y-50148008D01*
X120812567Y-50117202D01*
X120816168Y-50091300D01*
X120819003Y-50070651D01*
X120821025Y-50055604D01*
X120822182Y-50046509D01*
X120822449Y-50043718D01*
X120820246Y-50043972D01*
X120815059Y-50048661D01*
X120807857Y-50056854D01*
X120805035Y-50060384D01*
X120781796Y-50089194D01*
X120754497Y-50121459D01*
X120724050Y-50156192D01*
X120691365Y-50192405D01*
X120657352Y-50229111D01*
X120622922Y-50265321D01*
X120588986Y-50300048D01*
X120556454Y-50332304D01*
X120537899Y-50350146D01*
X120494132Y-50391666D01*
X120356394Y-50692718D01*
X120337069Y-50734921D01*
X120318504Y-50775393D01*
X120300890Y-50813724D01*
X120284416Y-50849505D01*
X120269273Y-50882325D01*
X120255649Y-50911775D01*
X120243735Y-50937444D01*
X120233721Y-50958921D01*
X120225796Y-50975798D01*
X120220151Y-50987664D01*
X120216975Y-50994109D01*
X120216342Y-50995200D01*
X120212970Y-50994116D01*
X120204085Y-50990487D01*
X120190230Y-50984555D01*
X120171950Y-50976561D01*
X120149788Y-50966743D01*
X120124287Y-50955345D01*
X120095992Y-50942605D01*
X120065446Y-50928765D01*
X120039613Y-50916997D01*
X119865198Y-50837364D01*
X119808432Y-50865795D01*
X119678681Y-50927178D01*
X119547525Y-50982054D01*
X119414925Y-51030432D01*
X119280842Y-51072320D01*
X119145238Y-51107726D01*
X119008074Y-51136659D01*
X118869312Y-51159127D01*
X118728914Y-51175139D01*
X118586841Y-51184703D01*
X118443055Y-51187828D01*
X118346666Y-51186351D01*
X118206911Y-51178870D01*
X118068192Y-51164876D01*
X117930711Y-51144467D01*
X117794672Y-51117745D01*
X117660276Y-51084809D01*
X117527726Y-51045760D01*
X117397225Y-51000698D01*
X117268976Y-50949723D01*
X117143180Y-50892935D01*
X117020041Y-50830435D01*
X116899760Y-50762324D01*
X116782541Y-50688700D01*
X116668585Y-50609664D01*
X116558096Y-50525317D01*
X116451276Y-50435759D01*
X116348327Y-50341090D01*
X116249453Y-50241410D01*
X116154855Y-50136820D01*
X116104253Y-50076666D01*
X116017385Y-49965456D01*
X115936128Y-49850763D01*
X115860549Y-49732807D01*
X115790714Y-49611806D01*
X115726689Y-49487977D01*
X115668539Y-49361538D01*
X115616331Y-49232708D01*
X115570131Y-49101705D01*
X115530004Y-48968746D01*
X115496016Y-48834050D01*
X115477174Y-48741666D01*
X122563333Y-48741666D01*
X122565000Y-48743333D01*
X122566666Y-48741666D01*
X122565000Y-48740000D01*
X122563333Y-48741666D01*
X115477174Y-48741666D01*
X115468235Y-48697834D01*
X115446724Y-48560317D01*
X115431551Y-48421716D01*
X115422782Y-48282250D01*
X115420482Y-48142137D01*
X115424717Y-48001595D01*
X115435138Y-47865000D01*
X115452492Y-47723322D01*
X115476250Y-47583319D01*
X115506345Y-47445157D01*
X115542709Y-47309003D01*
X115585274Y-47175020D01*
X115633971Y-47043377D01*
X115688734Y-46914237D01*
X115749493Y-46787768D01*
X115816181Y-46664135D01*
X115888730Y-46543503D01*
X115967072Y-46426039D01*
X116051138Y-46311909D01*
X116094719Y-46256859D01*
X116160518Y-46178806D01*
X116231450Y-46100475D01*
X116306177Y-46023202D01*
X116383364Y-45948325D01*
X116461675Y-45877179D01*
X116539772Y-45811100D01*
X116543526Y-45808052D01*
X116655317Y-45721692D01*
X116770677Y-45640870D01*
X116889383Y-45565676D01*
X117011212Y-45496201D01*
X117135942Y-45432533D01*
X117263349Y-45374764D01*
X117393213Y-45322982D01*
X117525309Y-45277278D01*
X117659415Y-45237742D01*
X117795308Y-45204463D01*
X117932767Y-45177531D01*
X118071567Y-45157038D01*
X118185000Y-45145203D01*
X118328581Y-45136278D01*
X118471409Y-45133958D01*
X118613376Y-45138223D01*
G37*
%TD*%
D11*
%TO.C,SW_5*%
X115970000Y-104085450D03*
D12*
X117240000Y-101545450D03*
D13*
X121050000Y-104085450D03*
D12*
X123590000Y-99005450D03*
D11*
X126130000Y-104085450D03*
%TD*%
D14*
%TO.C,D23*%
X103000000Y-42415450D03*
D15*
X103000000Y-50035450D03*
%TD*%
D14*
%TO.C,D28*%
X100000000Y-42415450D03*
D15*
X100000000Y-50035450D03*
%TD*%
D14*
%TO.C,D19*%
X106000000Y-42415450D03*
D15*
X106000000Y-50035450D03*
%TD*%
D11*
%TO.C,SW_4*%
X96920000Y-104085450D03*
D12*
X98190000Y-101545450D03*
D13*
X102000000Y-104085450D03*
D12*
X104540000Y-99005450D03*
D11*
X107080000Y-104085450D03*
%TD*%
D14*
%TO.C,D20*%
X88000000Y-42415450D03*
D15*
X88000000Y-50035450D03*
%TD*%
D16*
%TO.C,REF\u002A\u002A*%
X82950000Y-135200450D03*
D17*
X82950000Y-150410450D03*
D16*
X121050000Y-135200450D03*
D17*
X121050000Y-150410450D03*
%TD*%
D18*
%TO.C,J1*%
X95500000Y-63745450D03*
D19*
X95500000Y-61205450D03*
X95500000Y-58665450D03*
X95500000Y-56125450D03*
%TD*%
D14*
%TO.C,D16*%
X82000000Y-42415450D03*
D15*
X82000000Y-50035450D03*
%TD*%
D14*
%TO.C,D18*%
X91000000Y-42415450D03*
D15*
X91000000Y-50035450D03*
%TD*%
D20*
%TO.C,SW1*%
X75000000Y-57435450D03*
D21*
X75000000Y-62435450D03*
X75000000Y-59935450D03*
D22*
X82500000Y-54335450D03*
X82500000Y-65535450D03*
D21*
X89500000Y-62435450D03*
X89500000Y-57435450D03*
%TD*%
D11*
%TO.C,SW_2*%
X111207500Y-85035450D03*
D12*
X112477500Y-82495450D03*
D13*
X116287500Y-85035450D03*
D12*
X118827500Y-79955450D03*
D11*
X121367500Y-85035450D03*
%TD*%
%TO.C,SW_9*%
X96920000Y-142185450D03*
D12*
X98190000Y-139645450D03*
D13*
X102000000Y-142185450D03*
D12*
X104540000Y-137105450D03*
D11*
X107080000Y-142185450D03*
%TD*%
%TO.C,SW_6*%
X77870000Y-123135450D03*
D12*
X79140000Y-120595450D03*
D13*
X82950000Y-123135450D03*
D12*
X85490000Y-118055450D03*
D11*
X88030000Y-123135450D03*
%TD*%
D14*
%TO.C,D17*%
X85000000Y-42415450D03*
D15*
X85000000Y-50035450D03*
%TD*%
D14*
%TO.C,D24*%
X97000000Y-42415450D03*
D15*
X97000000Y-50035450D03*
%TD*%
D11*
%TO.C,SW_8*%
X115970000Y-123135450D03*
D12*
X117240000Y-120595450D03*
D13*
X121050000Y-123135450D03*
D12*
X123590000Y-118055450D03*
D11*
X126130000Y-123135450D03*
%TD*%
%TO.C,SW_7*%
X96920000Y-123135450D03*
D12*
X98190000Y-120595450D03*
D13*
X102000000Y-123135450D03*
D12*
X104540000Y-118055450D03*
D11*
X107080000Y-123135450D03*
%TD*%
%TO.C,SW_3*%
X77870000Y-104085450D03*
D12*
X79140000Y-101545450D03*
D13*
X82950000Y-104085450D03*
D12*
X85490000Y-99005450D03*
D11*
X88030000Y-104085450D03*
%TD*%
D14*
%TO.C,D22*%
X94000000Y-42415450D03*
D15*
X94000000Y-50035450D03*
%TD*%
D11*
%TO.C,SW_1*%
X82632500Y-85035450D03*
D12*
X83902500Y-82495450D03*
D13*
X87712500Y-85035450D03*
D12*
X90252500Y-79955450D03*
D11*
X92792500Y-85035450D03*
%TD*%
D23*
%TO.C,U1*%
X128235500Y-46627465D03*
D24*
X128235500Y-49167465D03*
X128235500Y-51707465D03*
X128235500Y-54247465D03*
X128235500Y-56787465D03*
X128235500Y-59327465D03*
X128235500Y-61867465D03*
X110985500Y-61867465D03*
X110985500Y-59327465D03*
X110985500Y-56787465D03*
D25*
X110985500Y-54247465D03*
X110985500Y-51707465D03*
X110985500Y-49167465D03*
X110985500Y-46627465D03*
%TD*%
M02*
