%TF.GenerationSoftware,KiCad,Pcbnew,9.0.7*%
%TF.CreationDate,2026-03-26T22:21:24+08:00*%
%TF.ProjectId,SpeedMacro,53706565-644d-4616-9372-6f2e6b696361,1*%
%TF.SameCoordinates,Original*%
%TF.FileFunction,Legend,Top*%
%TF.FilePolarity,Positive*%
%FSLAX46Y46*%
G04 Gerber Fmt 4.6, Leading zero omitted, Abs format (unit mm)*
G04 Created by KiCad (PCBNEW 9.0.7) date 2026-03-26 22:21:24*
%MOMM*%
%LPD*%
G01*
G04 APERTURE LIST*
%ADD10C,0.100000*%
%ADD11C,0.200000*%
%ADD12C,0.150000*%
%ADD13C,0.120000*%
G04 APERTURE END LIST*
D10*
X129753371Y-150410401D02*
X129705752Y-150458020D01*
X129705752Y-150458020D02*
X129562895Y-150553258D01*
X129562895Y-150553258D02*
X129467657Y-150600877D01*
X129467657Y-150600877D02*
X129324800Y-150648496D01*
X129324800Y-150648496D02*
X129086704Y-150696115D01*
X129086704Y-150696115D02*
X128896228Y-150696115D01*
X128896228Y-150696115D02*
X128658133Y-150648496D01*
X128658133Y-150648496D02*
X128515276Y-150600877D01*
X128515276Y-150600877D02*
X128420038Y-150553258D01*
X128420038Y-150553258D02*
X128277180Y-150458020D01*
X128277180Y-150458020D02*
X128229561Y-150410401D01*
X129324800Y-149600877D02*
X129372419Y-149696115D01*
X129372419Y-149696115D02*
X129372419Y-149886591D01*
X129372419Y-149886591D02*
X129324800Y-149981829D01*
X129324800Y-149981829D02*
X129277180Y-150029448D01*
X129277180Y-150029448D02*
X129181942Y-150077067D01*
X129181942Y-150077067D02*
X128896228Y-150077067D01*
X128896228Y-150077067D02*
X128800990Y-150029448D01*
X128800990Y-150029448D02*
X128753371Y-149981829D01*
X128753371Y-149981829D02*
X128705752Y-149886591D01*
X128705752Y-149886591D02*
X128705752Y-149696115D01*
X128705752Y-149696115D02*
X128753371Y-149600877D01*
X129753371Y-149267543D02*
X129705752Y-149219924D01*
X129705752Y-149219924D02*
X129562895Y-149124686D01*
X129562895Y-149124686D02*
X129467657Y-149077067D01*
X129467657Y-149077067D02*
X129324800Y-149029448D01*
X129324800Y-149029448D02*
X129086704Y-148981829D01*
X129086704Y-148981829D02*
X128896228Y-148981829D01*
X128896228Y-148981829D02*
X128658133Y-149029448D01*
X128658133Y-149029448D02*
X128515276Y-149077067D01*
X128515276Y-149077067D02*
X128420038Y-149124686D01*
X128420038Y-149124686D02*
X128277180Y-149219924D01*
X128277180Y-149219924D02*
X128229561Y-149267543D01*
X129372419Y-147743733D02*
X128372419Y-147743733D01*
X129372419Y-147172305D02*
X128800990Y-147600876D01*
X128372419Y-147172305D02*
X128943847Y-147743733D01*
X129372419Y-146743733D02*
X128372419Y-146743733D01*
X129372419Y-146267543D02*
X128372419Y-146267543D01*
X128372419Y-146267543D02*
X128372419Y-145886591D01*
X128372419Y-145886591D02*
X128420038Y-145791353D01*
X128420038Y-145791353D02*
X128467657Y-145743734D01*
X128467657Y-145743734D02*
X128562895Y-145696115D01*
X128562895Y-145696115D02*
X128705752Y-145696115D01*
X128705752Y-145696115D02*
X128800990Y-145743734D01*
X128800990Y-145743734D02*
X128848609Y-145791353D01*
X128848609Y-145791353D02*
X128896228Y-145886591D01*
X128896228Y-145886591D02*
X128896228Y-146267543D01*
X128467657Y-144553257D02*
X128420038Y-144505638D01*
X128420038Y-144505638D02*
X128372419Y-144410400D01*
X128372419Y-144410400D02*
X128372419Y-144172305D01*
X128372419Y-144172305D02*
X128420038Y-144077067D01*
X128420038Y-144077067D02*
X128467657Y-144029448D01*
X128467657Y-144029448D02*
X128562895Y-143981829D01*
X128562895Y-143981829D02*
X128658133Y-143981829D01*
X128658133Y-143981829D02*
X128800990Y-144029448D01*
X128800990Y-144029448D02*
X129372419Y-144600876D01*
X129372419Y-144600876D02*
X129372419Y-143981829D01*
X128372419Y-143362781D02*
X128372419Y-143267543D01*
X128372419Y-143267543D02*
X128420038Y-143172305D01*
X128420038Y-143172305D02*
X128467657Y-143124686D01*
X128467657Y-143124686D02*
X128562895Y-143077067D01*
X128562895Y-143077067D02*
X128753371Y-143029448D01*
X128753371Y-143029448D02*
X128991466Y-143029448D01*
X128991466Y-143029448D02*
X129181942Y-143077067D01*
X129181942Y-143077067D02*
X129277180Y-143124686D01*
X129277180Y-143124686D02*
X129324800Y-143172305D01*
X129324800Y-143172305D02*
X129372419Y-143267543D01*
X129372419Y-143267543D02*
X129372419Y-143362781D01*
X129372419Y-143362781D02*
X129324800Y-143458019D01*
X129324800Y-143458019D02*
X129277180Y-143505638D01*
X129277180Y-143505638D02*
X129181942Y-143553257D01*
X129181942Y-143553257D02*
X128991466Y-143600876D01*
X128991466Y-143600876D02*
X128753371Y-143600876D01*
X128753371Y-143600876D02*
X128562895Y-143553257D01*
X128562895Y-143553257D02*
X128467657Y-143505638D01*
X128467657Y-143505638D02*
X128420038Y-143458019D01*
X128420038Y-143458019D02*
X128372419Y-143362781D01*
X128467657Y-142648495D02*
X128420038Y-142600876D01*
X128420038Y-142600876D02*
X128372419Y-142505638D01*
X128372419Y-142505638D02*
X128372419Y-142267543D01*
X128372419Y-142267543D02*
X128420038Y-142172305D01*
X128420038Y-142172305D02*
X128467657Y-142124686D01*
X128467657Y-142124686D02*
X128562895Y-142077067D01*
X128562895Y-142077067D02*
X128658133Y-142077067D01*
X128658133Y-142077067D02*
X128800990Y-142124686D01*
X128800990Y-142124686D02*
X129372419Y-142696114D01*
X129372419Y-142696114D02*
X129372419Y-142077067D01*
X128372419Y-141219924D02*
X128372419Y-141410400D01*
X128372419Y-141410400D02*
X128420038Y-141505638D01*
X128420038Y-141505638D02*
X128467657Y-141553257D01*
X128467657Y-141553257D02*
X128610514Y-141648495D01*
X128610514Y-141648495D02*
X128800990Y-141696114D01*
X128800990Y-141696114D02*
X129181942Y-141696114D01*
X129181942Y-141696114D02*
X129277180Y-141648495D01*
X129277180Y-141648495D02*
X129324800Y-141600876D01*
X129324800Y-141600876D02*
X129372419Y-141505638D01*
X129372419Y-141505638D02*
X129372419Y-141315162D01*
X129372419Y-141315162D02*
X129324800Y-141219924D01*
X129324800Y-141219924D02*
X129277180Y-141172305D01*
X129277180Y-141172305D02*
X129181942Y-141124686D01*
X129181942Y-141124686D02*
X128943847Y-141124686D01*
X128943847Y-141124686D02*
X128848609Y-141172305D01*
X128848609Y-141172305D02*
X128800990Y-141219924D01*
X128800990Y-141219924D02*
X128753371Y-141315162D01*
X128753371Y-141315162D02*
X128753371Y-141505638D01*
X128753371Y-141505638D02*
X128800990Y-141600876D01*
X128800990Y-141600876D02*
X128848609Y-141648495D01*
X128848609Y-141648495D02*
X128943847Y-141696114D01*
D11*
X95085714Y-75087669D02*
X95085714Y-74087669D01*
X95085714Y-74087669D02*
X95323809Y-74087669D01*
X95323809Y-74087669D02*
X95466666Y-74135288D01*
X95466666Y-74135288D02*
X95561904Y-74230526D01*
X95561904Y-74230526D02*
X95609523Y-74325764D01*
X95609523Y-74325764D02*
X95657142Y-74516240D01*
X95657142Y-74516240D02*
X95657142Y-74659097D01*
X95657142Y-74659097D02*
X95609523Y-74849573D01*
X95609523Y-74849573D02*
X95561904Y-74944811D01*
X95561904Y-74944811D02*
X95466666Y-75040050D01*
X95466666Y-75040050D02*
X95323809Y-75087669D01*
X95323809Y-75087669D02*
X95085714Y-75087669D01*
X96609523Y-75087669D02*
X96038095Y-75087669D01*
X96323809Y-75087669D02*
X96323809Y-74087669D01*
X96323809Y-74087669D02*
X96228571Y-74230526D01*
X96228571Y-74230526D02*
X96133333Y-74325764D01*
X96133333Y-74325764D02*
X96038095Y-74373383D01*
X96990476Y-74182907D02*
X97038095Y-74135288D01*
X97038095Y-74135288D02*
X97133333Y-74087669D01*
X97133333Y-74087669D02*
X97371428Y-74087669D01*
X97371428Y-74087669D02*
X97466666Y-74135288D01*
X97466666Y-74135288D02*
X97514285Y-74182907D01*
X97514285Y-74182907D02*
X97561904Y-74278145D01*
X97561904Y-74278145D02*
X97561904Y-74373383D01*
X97561904Y-74373383D02*
X97514285Y-74516240D01*
X97514285Y-74516240D02*
X96942857Y-75087669D01*
X96942857Y-75087669D02*
X97561904Y-75087669D01*
D12*
X119335714Y-96492650D02*
X119478571Y-96540269D01*
X119478571Y-96540269D02*
X119716666Y-96540269D01*
X119716666Y-96540269D02*
X119811904Y-96492650D01*
X119811904Y-96492650D02*
X119859523Y-96445030D01*
X119859523Y-96445030D02*
X119907142Y-96349792D01*
X119907142Y-96349792D02*
X119907142Y-96254554D01*
X119907142Y-96254554D02*
X119859523Y-96159316D01*
X119859523Y-96159316D02*
X119811904Y-96111697D01*
X119811904Y-96111697D02*
X119716666Y-96064078D01*
X119716666Y-96064078D02*
X119526190Y-96016459D01*
X119526190Y-96016459D02*
X119430952Y-95968840D01*
X119430952Y-95968840D02*
X119383333Y-95921221D01*
X119383333Y-95921221D02*
X119335714Y-95825983D01*
X119335714Y-95825983D02*
X119335714Y-95730745D01*
X119335714Y-95730745D02*
X119383333Y-95635507D01*
X119383333Y-95635507D02*
X119430952Y-95587888D01*
X119430952Y-95587888D02*
X119526190Y-95540269D01*
X119526190Y-95540269D02*
X119764285Y-95540269D01*
X119764285Y-95540269D02*
X119907142Y-95587888D01*
X120240476Y-95540269D02*
X120478571Y-96540269D01*
X120478571Y-96540269D02*
X120669047Y-95825983D01*
X120669047Y-95825983D02*
X120859523Y-96540269D01*
X120859523Y-96540269D02*
X121097619Y-95540269D01*
X121240476Y-96635507D02*
X122002380Y-96635507D01*
X122716666Y-95540269D02*
X122240476Y-95540269D01*
X122240476Y-95540269D02*
X122192857Y-96016459D01*
X122192857Y-96016459D02*
X122240476Y-95968840D01*
X122240476Y-95968840D02*
X122335714Y-95921221D01*
X122335714Y-95921221D02*
X122573809Y-95921221D01*
X122573809Y-95921221D02*
X122669047Y-95968840D01*
X122669047Y-95968840D02*
X122716666Y-96016459D01*
X122716666Y-96016459D02*
X122764285Y-96111697D01*
X122764285Y-96111697D02*
X122764285Y-96349792D01*
X122764285Y-96349792D02*
X122716666Y-96445030D01*
X122716666Y-96445030D02*
X122669047Y-96492650D01*
X122669047Y-96492650D02*
X122573809Y-96540269D01*
X122573809Y-96540269D02*
X122335714Y-96540269D01*
X122335714Y-96540269D02*
X122240476Y-96492650D01*
X122240476Y-96492650D02*
X122192857Y-96445030D01*
X103454819Y-47629735D02*
X102454819Y-47629735D01*
X102454819Y-47629735D02*
X102454819Y-47391640D01*
X102454819Y-47391640D02*
X102502438Y-47248783D01*
X102502438Y-47248783D02*
X102597676Y-47153545D01*
X102597676Y-47153545D02*
X102692914Y-47105926D01*
X102692914Y-47105926D02*
X102883390Y-47058307D01*
X102883390Y-47058307D02*
X103026247Y-47058307D01*
X103026247Y-47058307D02*
X103216723Y-47105926D01*
X103216723Y-47105926D02*
X103311961Y-47153545D01*
X103311961Y-47153545D02*
X103407200Y-47248783D01*
X103407200Y-47248783D02*
X103454819Y-47391640D01*
X103454819Y-47391640D02*
X103454819Y-47629735D01*
X102550057Y-46677354D02*
X102502438Y-46629735D01*
X102502438Y-46629735D02*
X102454819Y-46534497D01*
X102454819Y-46534497D02*
X102454819Y-46296402D01*
X102454819Y-46296402D02*
X102502438Y-46201164D01*
X102502438Y-46201164D02*
X102550057Y-46153545D01*
X102550057Y-46153545D02*
X102645295Y-46105926D01*
X102645295Y-46105926D02*
X102740533Y-46105926D01*
X102740533Y-46105926D02*
X102883390Y-46153545D01*
X102883390Y-46153545D02*
X103454819Y-46724973D01*
X103454819Y-46724973D02*
X103454819Y-46105926D01*
X102454819Y-45772592D02*
X102454819Y-45153545D01*
X102454819Y-45153545D02*
X102835771Y-45486878D01*
X102835771Y-45486878D02*
X102835771Y-45344021D01*
X102835771Y-45344021D02*
X102883390Y-45248783D01*
X102883390Y-45248783D02*
X102931009Y-45201164D01*
X102931009Y-45201164D02*
X103026247Y-45153545D01*
X103026247Y-45153545D02*
X103264342Y-45153545D01*
X103264342Y-45153545D02*
X103359580Y-45201164D01*
X103359580Y-45201164D02*
X103407200Y-45248783D01*
X103407200Y-45248783D02*
X103454819Y-45344021D01*
X103454819Y-45344021D02*
X103454819Y-45629735D01*
X103454819Y-45629735D02*
X103407200Y-45724973D01*
X103407200Y-45724973D02*
X103359580Y-45772592D01*
X100454819Y-47629735D02*
X99454819Y-47629735D01*
X99454819Y-47629735D02*
X99454819Y-47391640D01*
X99454819Y-47391640D02*
X99502438Y-47248783D01*
X99502438Y-47248783D02*
X99597676Y-47153545D01*
X99597676Y-47153545D02*
X99692914Y-47105926D01*
X99692914Y-47105926D02*
X99883390Y-47058307D01*
X99883390Y-47058307D02*
X100026247Y-47058307D01*
X100026247Y-47058307D02*
X100216723Y-47105926D01*
X100216723Y-47105926D02*
X100311961Y-47153545D01*
X100311961Y-47153545D02*
X100407200Y-47248783D01*
X100407200Y-47248783D02*
X100454819Y-47391640D01*
X100454819Y-47391640D02*
X100454819Y-47629735D01*
X99550057Y-46677354D02*
X99502438Y-46629735D01*
X99502438Y-46629735D02*
X99454819Y-46534497D01*
X99454819Y-46534497D02*
X99454819Y-46296402D01*
X99454819Y-46296402D02*
X99502438Y-46201164D01*
X99502438Y-46201164D02*
X99550057Y-46153545D01*
X99550057Y-46153545D02*
X99645295Y-46105926D01*
X99645295Y-46105926D02*
X99740533Y-46105926D01*
X99740533Y-46105926D02*
X99883390Y-46153545D01*
X99883390Y-46153545D02*
X100454819Y-46724973D01*
X100454819Y-46724973D02*
X100454819Y-46105926D01*
X99883390Y-45534497D02*
X99835771Y-45629735D01*
X99835771Y-45629735D02*
X99788152Y-45677354D01*
X99788152Y-45677354D02*
X99692914Y-45724973D01*
X99692914Y-45724973D02*
X99645295Y-45724973D01*
X99645295Y-45724973D02*
X99550057Y-45677354D01*
X99550057Y-45677354D02*
X99502438Y-45629735D01*
X99502438Y-45629735D02*
X99454819Y-45534497D01*
X99454819Y-45534497D02*
X99454819Y-45344021D01*
X99454819Y-45344021D02*
X99502438Y-45248783D01*
X99502438Y-45248783D02*
X99550057Y-45201164D01*
X99550057Y-45201164D02*
X99645295Y-45153545D01*
X99645295Y-45153545D02*
X99692914Y-45153545D01*
X99692914Y-45153545D02*
X99788152Y-45201164D01*
X99788152Y-45201164D02*
X99835771Y-45248783D01*
X99835771Y-45248783D02*
X99883390Y-45344021D01*
X99883390Y-45344021D02*
X99883390Y-45534497D01*
X99883390Y-45534497D02*
X99931009Y-45629735D01*
X99931009Y-45629735D02*
X99978628Y-45677354D01*
X99978628Y-45677354D02*
X100073866Y-45724973D01*
X100073866Y-45724973D02*
X100264342Y-45724973D01*
X100264342Y-45724973D02*
X100359580Y-45677354D01*
X100359580Y-45677354D02*
X100407200Y-45629735D01*
X100407200Y-45629735D02*
X100454819Y-45534497D01*
X100454819Y-45534497D02*
X100454819Y-45344021D01*
X100454819Y-45344021D02*
X100407200Y-45248783D01*
X100407200Y-45248783D02*
X100359580Y-45201164D01*
X100359580Y-45201164D02*
X100264342Y-45153545D01*
X100264342Y-45153545D02*
X100073866Y-45153545D01*
X100073866Y-45153545D02*
X99978628Y-45201164D01*
X99978628Y-45201164D02*
X99931009Y-45248783D01*
X99931009Y-45248783D02*
X99883390Y-45344021D01*
X106454819Y-47629735D02*
X105454819Y-47629735D01*
X105454819Y-47629735D02*
X105454819Y-47391640D01*
X105454819Y-47391640D02*
X105502438Y-47248783D01*
X105502438Y-47248783D02*
X105597676Y-47153545D01*
X105597676Y-47153545D02*
X105692914Y-47105926D01*
X105692914Y-47105926D02*
X105883390Y-47058307D01*
X105883390Y-47058307D02*
X106026247Y-47058307D01*
X106026247Y-47058307D02*
X106216723Y-47105926D01*
X106216723Y-47105926D02*
X106311961Y-47153545D01*
X106311961Y-47153545D02*
X106407200Y-47248783D01*
X106407200Y-47248783D02*
X106454819Y-47391640D01*
X106454819Y-47391640D02*
X106454819Y-47629735D01*
X106454819Y-46105926D02*
X106454819Y-46677354D01*
X106454819Y-46391640D02*
X105454819Y-46391640D01*
X105454819Y-46391640D02*
X105597676Y-46486878D01*
X105597676Y-46486878D02*
X105692914Y-46582116D01*
X105692914Y-46582116D02*
X105740533Y-46677354D01*
X106454819Y-45629735D02*
X106454819Y-45439259D01*
X106454819Y-45439259D02*
X106407200Y-45344021D01*
X106407200Y-45344021D02*
X106359580Y-45296402D01*
X106359580Y-45296402D02*
X106216723Y-45201164D01*
X106216723Y-45201164D02*
X106026247Y-45153545D01*
X106026247Y-45153545D02*
X105645295Y-45153545D01*
X105645295Y-45153545D02*
X105550057Y-45201164D01*
X105550057Y-45201164D02*
X105502438Y-45248783D01*
X105502438Y-45248783D02*
X105454819Y-45344021D01*
X105454819Y-45344021D02*
X105454819Y-45534497D01*
X105454819Y-45534497D02*
X105502438Y-45629735D01*
X105502438Y-45629735D02*
X105550057Y-45677354D01*
X105550057Y-45677354D02*
X105645295Y-45724973D01*
X105645295Y-45724973D02*
X105883390Y-45724973D01*
X105883390Y-45724973D02*
X105978628Y-45677354D01*
X105978628Y-45677354D02*
X106026247Y-45629735D01*
X106026247Y-45629735D02*
X106073866Y-45534497D01*
X106073866Y-45534497D02*
X106073866Y-45344021D01*
X106073866Y-45344021D02*
X106026247Y-45248783D01*
X106026247Y-45248783D02*
X105978628Y-45201164D01*
X105978628Y-45201164D02*
X105883390Y-45153545D01*
X100285714Y-96492650D02*
X100428571Y-96540269D01*
X100428571Y-96540269D02*
X100666666Y-96540269D01*
X100666666Y-96540269D02*
X100761904Y-96492650D01*
X100761904Y-96492650D02*
X100809523Y-96445030D01*
X100809523Y-96445030D02*
X100857142Y-96349792D01*
X100857142Y-96349792D02*
X100857142Y-96254554D01*
X100857142Y-96254554D02*
X100809523Y-96159316D01*
X100809523Y-96159316D02*
X100761904Y-96111697D01*
X100761904Y-96111697D02*
X100666666Y-96064078D01*
X100666666Y-96064078D02*
X100476190Y-96016459D01*
X100476190Y-96016459D02*
X100380952Y-95968840D01*
X100380952Y-95968840D02*
X100333333Y-95921221D01*
X100333333Y-95921221D02*
X100285714Y-95825983D01*
X100285714Y-95825983D02*
X100285714Y-95730745D01*
X100285714Y-95730745D02*
X100333333Y-95635507D01*
X100333333Y-95635507D02*
X100380952Y-95587888D01*
X100380952Y-95587888D02*
X100476190Y-95540269D01*
X100476190Y-95540269D02*
X100714285Y-95540269D01*
X100714285Y-95540269D02*
X100857142Y-95587888D01*
X101190476Y-95540269D02*
X101428571Y-96540269D01*
X101428571Y-96540269D02*
X101619047Y-95825983D01*
X101619047Y-95825983D02*
X101809523Y-96540269D01*
X101809523Y-96540269D02*
X102047619Y-95540269D01*
X102190476Y-96635507D02*
X102952380Y-96635507D01*
X103619047Y-95873602D02*
X103619047Y-96540269D01*
X103380952Y-95492650D02*
X103142857Y-96206935D01*
X103142857Y-96206935D02*
X103761904Y-96206935D01*
X88454819Y-47629735D02*
X87454819Y-47629735D01*
X87454819Y-47629735D02*
X87454819Y-47391640D01*
X87454819Y-47391640D02*
X87502438Y-47248783D01*
X87502438Y-47248783D02*
X87597676Y-47153545D01*
X87597676Y-47153545D02*
X87692914Y-47105926D01*
X87692914Y-47105926D02*
X87883390Y-47058307D01*
X87883390Y-47058307D02*
X88026247Y-47058307D01*
X88026247Y-47058307D02*
X88216723Y-47105926D01*
X88216723Y-47105926D02*
X88311961Y-47153545D01*
X88311961Y-47153545D02*
X88407200Y-47248783D01*
X88407200Y-47248783D02*
X88454819Y-47391640D01*
X88454819Y-47391640D02*
X88454819Y-47629735D01*
X87550057Y-46677354D02*
X87502438Y-46629735D01*
X87502438Y-46629735D02*
X87454819Y-46534497D01*
X87454819Y-46534497D02*
X87454819Y-46296402D01*
X87454819Y-46296402D02*
X87502438Y-46201164D01*
X87502438Y-46201164D02*
X87550057Y-46153545D01*
X87550057Y-46153545D02*
X87645295Y-46105926D01*
X87645295Y-46105926D02*
X87740533Y-46105926D01*
X87740533Y-46105926D02*
X87883390Y-46153545D01*
X87883390Y-46153545D02*
X88454819Y-46724973D01*
X88454819Y-46724973D02*
X88454819Y-46105926D01*
X87454819Y-45486878D02*
X87454819Y-45391640D01*
X87454819Y-45391640D02*
X87502438Y-45296402D01*
X87502438Y-45296402D02*
X87550057Y-45248783D01*
X87550057Y-45248783D02*
X87645295Y-45201164D01*
X87645295Y-45201164D02*
X87835771Y-45153545D01*
X87835771Y-45153545D02*
X88073866Y-45153545D01*
X88073866Y-45153545D02*
X88264342Y-45201164D01*
X88264342Y-45201164D02*
X88359580Y-45248783D01*
X88359580Y-45248783D02*
X88407200Y-45296402D01*
X88407200Y-45296402D02*
X88454819Y-45391640D01*
X88454819Y-45391640D02*
X88454819Y-45486878D01*
X88454819Y-45486878D02*
X88407200Y-45582116D01*
X88407200Y-45582116D02*
X88359580Y-45629735D01*
X88359580Y-45629735D02*
X88264342Y-45677354D01*
X88264342Y-45677354D02*
X88073866Y-45724973D01*
X88073866Y-45724973D02*
X87835771Y-45724973D01*
X87835771Y-45724973D02*
X87645295Y-45677354D01*
X87645295Y-45677354D02*
X87550057Y-45629735D01*
X87550057Y-45629735D02*
X87502438Y-45582116D01*
X87502438Y-45582116D02*
X87454819Y-45486878D01*
X95166666Y-65580269D02*
X95166666Y-66294554D01*
X95166666Y-66294554D02*
X95119047Y-66437411D01*
X95119047Y-66437411D02*
X95023809Y-66532650D01*
X95023809Y-66532650D02*
X94880952Y-66580269D01*
X94880952Y-66580269D02*
X94785714Y-66580269D01*
X96166666Y-66580269D02*
X95595238Y-66580269D01*
X95880952Y-66580269D02*
X95880952Y-65580269D01*
X95880952Y-65580269D02*
X95785714Y-65723126D01*
X95785714Y-65723126D02*
X95690476Y-65818364D01*
X95690476Y-65818364D02*
X95595238Y-65865983D01*
D11*
X105285714Y-75087669D02*
X105285714Y-74087669D01*
X105285714Y-74087669D02*
X105523809Y-74087669D01*
X105523809Y-74087669D02*
X105666666Y-74135288D01*
X105666666Y-74135288D02*
X105761904Y-74230526D01*
X105761904Y-74230526D02*
X105809523Y-74325764D01*
X105809523Y-74325764D02*
X105857142Y-74516240D01*
X105857142Y-74516240D02*
X105857142Y-74659097D01*
X105857142Y-74659097D02*
X105809523Y-74849573D01*
X105809523Y-74849573D02*
X105761904Y-74944811D01*
X105761904Y-74944811D02*
X105666666Y-75040050D01*
X105666666Y-75040050D02*
X105523809Y-75087669D01*
X105523809Y-75087669D02*
X105285714Y-75087669D01*
X106809523Y-75087669D02*
X106238095Y-75087669D01*
X106523809Y-75087669D02*
X106523809Y-74087669D01*
X106523809Y-74087669D02*
X106428571Y-74230526D01*
X106428571Y-74230526D02*
X106333333Y-74325764D01*
X106333333Y-74325764D02*
X106238095Y-74373383D01*
X107142857Y-74087669D02*
X107761904Y-74087669D01*
X107761904Y-74087669D02*
X107428571Y-74468621D01*
X107428571Y-74468621D02*
X107571428Y-74468621D01*
X107571428Y-74468621D02*
X107666666Y-74516240D01*
X107666666Y-74516240D02*
X107714285Y-74563859D01*
X107714285Y-74563859D02*
X107761904Y-74659097D01*
X107761904Y-74659097D02*
X107761904Y-74897192D01*
X107761904Y-74897192D02*
X107714285Y-74992430D01*
X107714285Y-74992430D02*
X107666666Y-75040050D01*
X107666666Y-75040050D02*
X107571428Y-75087669D01*
X107571428Y-75087669D02*
X107285714Y-75087669D01*
X107285714Y-75087669D02*
X107190476Y-75040050D01*
X107190476Y-75040050D02*
X107142857Y-74992430D01*
X74685714Y-75087669D02*
X74685714Y-74087669D01*
X74685714Y-74087669D02*
X74923809Y-74087669D01*
X74923809Y-74087669D02*
X75066666Y-74135288D01*
X75066666Y-74135288D02*
X75161904Y-74230526D01*
X75161904Y-74230526D02*
X75209523Y-74325764D01*
X75209523Y-74325764D02*
X75257142Y-74516240D01*
X75257142Y-74516240D02*
X75257142Y-74659097D01*
X75257142Y-74659097D02*
X75209523Y-74849573D01*
X75209523Y-74849573D02*
X75161904Y-74944811D01*
X75161904Y-74944811D02*
X75066666Y-75040050D01*
X75066666Y-75040050D02*
X74923809Y-75087669D01*
X74923809Y-75087669D02*
X74685714Y-75087669D01*
X76209523Y-75087669D02*
X75638095Y-75087669D01*
X75923809Y-75087669D02*
X75923809Y-74087669D01*
X75923809Y-74087669D02*
X75828571Y-74230526D01*
X75828571Y-74230526D02*
X75733333Y-74325764D01*
X75733333Y-74325764D02*
X75638095Y-74373383D01*
X76828571Y-74087669D02*
X76923809Y-74087669D01*
X76923809Y-74087669D02*
X77019047Y-74135288D01*
X77019047Y-74135288D02*
X77066666Y-74182907D01*
X77066666Y-74182907D02*
X77114285Y-74278145D01*
X77114285Y-74278145D02*
X77161904Y-74468621D01*
X77161904Y-74468621D02*
X77161904Y-74706716D01*
X77161904Y-74706716D02*
X77114285Y-74897192D01*
X77114285Y-74897192D02*
X77066666Y-74992430D01*
X77066666Y-74992430D02*
X77019047Y-75040050D01*
X77019047Y-75040050D02*
X76923809Y-75087669D01*
X76923809Y-75087669D02*
X76828571Y-75087669D01*
X76828571Y-75087669D02*
X76733333Y-75040050D01*
X76733333Y-75040050D02*
X76685714Y-74992430D01*
X76685714Y-74992430D02*
X76638095Y-74897192D01*
X76638095Y-74897192D02*
X76590476Y-74706716D01*
X76590476Y-74706716D02*
X76590476Y-74468621D01*
X76590476Y-74468621D02*
X76638095Y-74278145D01*
X76638095Y-74278145D02*
X76685714Y-74182907D01*
X76685714Y-74182907D02*
X76733333Y-74135288D01*
X76733333Y-74135288D02*
X76828571Y-74087669D01*
D12*
X82454819Y-47629735D02*
X81454819Y-47629735D01*
X81454819Y-47629735D02*
X81454819Y-47391640D01*
X81454819Y-47391640D02*
X81502438Y-47248783D01*
X81502438Y-47248783D02*
X81597676Y-47153545D01*
X81597676Y-47153545D02*
X81692914Y-47105926D01*
X81692914Y-47105926D02*
X81883390Y-47058307D01*
X81883390Y-47058307D02*
X82026247Y-47058307D01*
X82026247Y-47058307D02*
X82216723Y-47105926D01*
X82216723Y-47105926D02*
X82311961Y-47153545D01*
X82311961Y-47153545D02*
X82407200Y-47248783D01*
X82407200Y-47248783D02*
X82454819Y-47391640D01*
X82454819Y-47391640D02*
X82454819Y-47629735D01*
X82454819Y-46105926D02*
X82454819Y-46677354D01*
X82454819Y-46391640D02*
X81454819Y-46391640D01*
X81454819Y-46391640D02*
X81597676Y-46486878D01*
X81597676Y-46486878D02*
X81692914Y-46582116D01*
X81692914Y-46582116D02*
X81740533Y-46677354D01*
X81454819Y-45248783D02*
X81454819Y-45439259D01*
X81454819Y-45439259D02*
X81502438Y-45534497D01*
X81502438Y-45534497D02*
X81550057Y-45582116D01*
X81550057Y-45582116D02*
X81692914Y-45677354D01*
X81692914Y-45677354D02*
X81883390Y-45724973D01*
X81883390Y-45724973D02*
X82264342Y-45724973D01*
X82264342Y-45724973D02*
X82359580Y-45677354D01*
X82359580Y-45677354D02*
X82407200Y-45629735D01*
X82407200Y-45629735D02*
X82454819Y-45534497D01*
X82454819Y-45534497D02*
X82454819Y-45344021D01*
X82454819Y-45344021D02*
X82407200Y-45248783D01*
X82407200Y-45248783D02*
X82359580Y-45201164D01*
X82359580Y-45201164D02*
X82264342Y-45153545D01*
X82264342Y-45153545D02*
X82026247Y-45153545D01*
X82026247Y-45153545D02*
X81931009Y-45201164D01*
X81931009Y-45201164D02*
X81883390Y-45248783D01*
X81883390Y-45248783D02*
X81835771Y-45344021D01*
X81835771Y-45344021D02*
X81835771Y-45534497D01*
X81835771Y-45534497D02*
X81883390Y-45629735D01*
X81883390Y-45629735D02*
X81931009Y-45677354D01*
X81931009Y-45677354D02*
X82026247Y-45724973D01*
X91454819Y-47629735D02*
X90454819Y-47629735D01*
X90454819Y-47629735D02*
X90454819Y-47391640D01*
X90454819Y-47391640D02*
X90502438Y-47248783D01*
X90502438Y-47248783D02*
X90597676Y-47153545D01*
X90597676Y-47153545D02*
X90692914Y-47105926D01*
X90692914Y-47105926D02*
X90883390Y-47058307D01*
X90883390Y-47058307D02*
X91026247Y-47058307D01*
X91026247Y-47058307D02*
X91216723Y-47105926D01*
X91216723Y-47105926D02*
X91311961Y-47153545D01*
X91311961Y-47153545D02*
X91407200Y-47248783D01*
X91407200Y-47248783D02*
X91454819Y-47391640D01*
X91454819Y-47391640D02*
X91454819Y-47629735D01*
X91454819Y-46105926D02*
X91454819Y-46677354D01*
X91454819Y-46391640D02*
X90454819Y-46391640D01*
X90454819Y-46391640D02*
X90597676Y-46486878D01*
X90597676Y-46486878D02*
X90692914Y-46582116D01*
X90692914Y-46582116D02*
X90740533Y-46677354D01*
X90883390Y-45534497D02*
X90835771Y-45629735D01*
X90835771Y-45629735D02*
X90788152Y-45677354D01*
X90788152Y-45677354D02*
X90692914Y-45724973D01*
X90692914Y-45724973D02*
X90645295Y-45724973D01*
X90645295Y-45724973D02*
X90550057Y-45677354D01*
X90550057Y-45677354D02*
X90502438Y-45629735D01*
X90502438Y-45629735D02*
X90454819Y-45534497D01*
X90454819Y-45534497D02*
X90454819Y-45344021D01*
X90454819Y-45344021D02*
X90502438Y-45248783D01*
X90502438Y-45248783D02*
X90550057Y-45201164D01*
X90550057Y-45201164D02*
X90645295Y-45153545D01*
X90645295Y-45153545D02*
X90692914Y-45153545D01*
X90692914Y-45153545D02*
X90788152Y-45201164D01*
X90788152Y-45201164D02*
X90835771Y-45248783D01*
X90835771Y-45248783D02*
X90883390Y-45344021D01*
X90883390Y-45344021D02*
X90883390Y-45534497D01*
X90883390Y-45534497D02*
X90931009Y-45629735D01*
X90931009Y-45629735D02*
X90978628Y-45677354D01*
X90978628Y-45677354D02*
X91073866Y-45724973D01*
X91073866Y-45724973D02*
X91264342Y-45724973D01*
X91264342Y-45724973D02*
X91359580Y-45677354D01*
X91359580Y-45677354D02*
X91407200Y-45629735D01*
X91407200Y-45629735D02*
X91454819Y-45534497D01*
X91454819Y-45534497D02*
X91454819Y-45344021D01*
X91454819Y-45344021D02*
X91407200Y-45248783D01*
X91407200Y-45248783D02*
X91359580Y-45201164D01*
X91359580Y-45201164D02*
X91264342Y-45153545D01*
X91264342Y-45153545D02*
X91073866Y-45153545D01*
X91073866Y-45153545D02*
X90978628Y-45201164D01*
X90978628Y-45201164D02*
X90931009Y-45248783D01*
X90931009Y-45248783D02*
X90883390Y-45344021D01*
D11*
X120261905Y-112452219D02*
X120261905Y-111452219D01*
X120261905Y-111452219D02*
X120500000Y-111452219D01*
X120500000Y-111452219D02*
X120642857Y-111499838D01*
X120642857Y-111499838D02*
X120738095Y-111595076D01*
X120738095Y-111595076D02*
X120785714Y-111690314D01*
X120785714Y-111690314D02*
X120833333Y-111880790D01*
X120833333Y-111880790D02*
X120833333Y-112023647D01*
X120833333Y-112023647D02*
X120785714Y-112214123D01*
X120785714Y-112214123D02*
X120738095Y-112309361D01*
X120738095Y-112309361D02*
X120642857Y-112404600D01*
X120642857Y-112404600D02*
X120500000Y-112452219D01*
X120500000Y-112452219D02*
X120261905Y-112452219D01*
X121738095Y-111452219D02*
X121261905Y-111452219D01*
X121261905Y-111452219D02*
X121214286Y-111928409D01*
X121214286Y-111928409D02*
X121261905Y-111880790D01*
X121261905Y-111880790D02*
X121357143Y-111833171D01*
X121357143Y-111833171D02*
X121595238Y-111833171D01*
X121595238Y-111833171D02*
X121690476Y-111880790D01*
X121690476Y-111880790D02*
X121738095Y-111928409D01*
X121738095Y-111928409D02*
X121785714Y-112023647D01*
X121785714Y-112023647D02*
X121785714Y-112261742D01*
X121785714Y-112261742D02*
X121738095Y-112356980D01*
X121738095Y-112356980D02*
X121690476Y-112404600D01*
X121690476Y-112404600D02*
X121595238Y-112452219D01*
X121595238Y-112452219D02*
X121357143Y-112452219D01*
X121357143Y-112452219D02*
X121261905Y-112404600D01*
X121261905Y-112404600D02*
X121214286Y-112356980D01*
D12*
X76466667Y-53142650D02*
X76609524Y-53190269D01*
X76609524Y-53190269D02*
X76847619Y-53190269D01*
X76847619Y-53190269D02*
X76942857Y-53142650D01*
X76942857Y-53142650D02*
X76990476Y-53095030D01*
X76990476Y-53095030D02*
X77038095Y-52999792D01*
X77038095Y-52999792D02*
X77038095Y-52904554D01*
X77038095Y-52904554D02*
X76990476Y-52809316D01*
X76990476Y-52809316D02*
X76942857Y-52761697D01*
X76942857Y-52761697D02*
X76847619Y-52714078D01*
X76847619Y-52714078D02*
X76657143Y-52666459D01*
X76657143Y-52666459D02*
X76561905Y-52618840D01*
X76561905Y-52618840D02*
X76514286Y-52571221D01*
X76514286Y-52571221D02*
X76466667Y-52475983D01*
X76466667Y-52475983D02*
X76466667Y-52380745D01*
X76466667Y-52380745D02*
X76514286Y-52285507D01*
X76514286Y-52285507D02*
X76561905Y-52237888D01*
X76561905Y-52237888D02*
X76657143Y-52190269D01*
X76657143Y-52190269D02*
X76895238Y-52190269D01*
X76895238Y-52190269D02*
X77038095Y-52237888D01*
X77371429Y-52190269D02*
X77609524Y-53190269D01*
X77609524Y-53190269D02*
X77800000Y-52475983D01*
X77800000Y-52475983D02*
X77990476Y-53190269D01*
X77990476Y-53190269D02*
X78228572Y-52190269D01*
X79133333Y-53190269D02*
X78561905Y-53190269D01*
X78847619Y-53190269D02*
X78847619Y-52190269D01*
X78847619Y-52190269D02*
X78752381Y-52333126D01*
X78752381Y-52333126D02*
X78657143Y-52428364D01*
X78657143Y-52428364D02*
X78561905Y-52475983D01*
D11*
X125685714Y-75087669D02*
X125685714Y-74087669D01*
X125685714Y-74087669D02*
X125923809Y-74087669D01*
X125923809Y-74087669D02*
X126066666Y-74135288D01*
X126066666Y-74135288D02*
X126161904Y-74230526D01*
X126161904Y-74230526D02*
X126209523Y-74325764D01*
X126209523Y-74325764D02*
X126257142Y-74516240D01*
X126257142Y-74516240D02*
X126257142Y-74659097D01*
X126257142Y-74659097D02*
X126209523Y-74849573D01*
X126209523Y-74849573D02*
X126161904Y-74944811D01*
X126161904Y-74944811D02*
X126066666Y-75040050D01*
X126066666Y-75040050D02*
X125923809Y-75087669D01*
X125923809Y-75087669D02*
X125685714Y-75087669D01*
X127209523Y-75087669D02*
X126638095Y-75087669D01*
X126923809Y-75087669D02*
X126923809Y-74087669D01*
X126923809Y-74087669D02*
X126828571Y-74230526D01*
X126828571Y-74230526D02*
X126733333Y-74325764D01*
X126733333Y-74325764D02*
X126638095Y-74373383D01*
X128114285Y-74087669D02*
X127638095Y-74087669D01*
X127638095Y-74087669D02*
X127590476Y-74563859D01*
X127590476Y-74563859D02*
X127638095Y-74516240D01*
X127638095Y-74516240D02*
X127733333Y-74468621D01*
X127733333Y-74468621D02*
X127971428Y-74468621D01*
X127971428Y-74468621D02*
X128066666Y-74516240D01*
X128066666Y-74516240D02*
X128114285Y-74563859D01*
X128114285Y-74563859D02*
X128161904Y-74659097D01*
X128161904Y-74659097D02*
X128161904Y-74897192D01*
X128161904Y-74897192D02*
X128114285Y-74992430D01*
X128114285Y-74992430D02*
X128066666Y-75040050D01*
X128066666Y-75040050D02*
X127971428Y-75087669D01*
X127971428Y-75087669D02*
X127733333Y-75087669D01*
X127733333Y-75087669D02*
X127638095Y-75040050D01*
X127638095Y-75040050D02*
X127590476Y-74992430D01*
D12*
X114573214Y-77442650D02*
X114716071Y-77490269D01*
X114716071Y-77490269D02*
X114954166Y-77490269D01*
X114954166Y-77490269D02*
X115049404Y-77442650D01*
X115049404Y-77442650D02*
X115097023Y-77395030D01*
X115097023Y-77395030D02*
X115144642Y-77299792D01*
X115144642Y-77299792D02*
X115144642Y-77204554D01*
X115144642Y-77204554D02*
X115097023Y-77109316D01*
X115097023Y-77109316D02*
X115049404Y-77061697D01*
X115049404Y-77061697D02*
X114954166Y-77014078D01*
X114954166Y-77014078D02*
X114763690Y-76966459D01*
X114763690Y-76966459D02*
X114668452Y-76918840D01*
X114668452Y-76918840D02*
X114620833Y-76871221D01*
X114620833Y-76871221D02*
X114573214Y-76775983D01*
X114573214Y-76775983D02*
X114573214Y-76680745D01*
X114573214Y-76680745D02*
X114620833Y-76585507D01*
X114620833Y-76585507D02*
X114668452Y-76537888D01*
X114668452Y-76537888D02*
X114763690Y-76490269D01*
X114763690Y-76490269D02*
X115001785Y-76490269D01*
X115001785Y-76490269D02*
X115144642Y-76537888D01*
X115477976Y-76490269D02*
X115716071Y-77490269D01*
X115716071Y-77490269D02*
X115906547Y-76775983D01*
X115906547Y-76775983D02*
X116097023Y-77490269D01*
X116097023Y-77490269D02*
X116335119Y-76490269D01*
X116477976Y-77585507D02*
X117239880Y-77585507D01*
X117430357Y-76585507D02*
X117477976Y-76537888D01*
X117477976Y-76537888D02*
X117573214Y-76490269D01*
X117573214Y-76490269D02*
X117811309Y-76490269D01*
X117811309Y-76490269D02*
X117906547Y-76537888D01*
X117906547Y-76537888D02*
X117954166Y-76585507D01*
X117954166Y-76585507D02*
X118001785Y-76680745D01*
X118001785Y-76680745D02*
X118001785Y-76775983D01*
X118001785Y-76775983D02*
X117954166Y-76918840D01*
X117954166Y-76918840D02*
X117382738Y-77490269D01*
X117382738Y-77490269D02*
X118001785Y-77490269D01*
X100285714Y-134592650D02*
X100428571Y-134640269D01*
X100428571Y-134640269D02*
X100666666Y-134640269D01*
X100666666Y-134640269D02*
X100761904Y-134592650D01*
X100761904Y-134592650D02*
X100809523Y-134545030D01*
X100809523Y-134545030D02*
X100857142Y-134449792D01*
X100857142Y-134449792D02*
X100857142Y-134354554D01*
X100857142Y-134354554D02*
X100809523Y-134259316D01*
X100809523Y-134259316D02*
X100761904Y-134211697D01*
X100761904Y-134211697D02*
X100666666Y-134164078D01*
X100666666Y-134164078D02*
X100476190Y-134116459D01*
X100476190Y-134116459D02*
X100380952Y-134068840D01*
X100380952Y-134068840D02*
X100333333Y-134021221D01*
X100333333Y-134021221D02*
X100285714Y-133925983D01*
X100285714Y-133925983D02*
X100285714Y-133830745D01*
X100285714Y-133830745D02*
X100333333Y-133735507D01*
X100333333Y-133735507D02*
X100380952Y-133687888D01*
X100380952Y-133687888D02*
X100476190Y-133640269D01*
X100476190Y-133640269D02*
X100714285Y-133640269D01*
X100714285Y-133640269D02*
X100857142Y-133687888D01*
X101190476Y-133640269D02*
X101428571Y-134640269D01*
X101428571Y-134640269D02*
X101619047Y-133925983D01*
X101619047Y-133925983D02*
X101809523Y-134640269D01*
X101809523Y-134640269D02*
X102047619Y-133640269D01*
X102190476Y-134735507D02*
X102952380Y-134735507D01*
X103238095Y-134640269D02*
X103428571Y-134640269D01*
X103428571Y-134640269D02*
X103523809Y-134592650D01*
X103523809Y-134592650D02*
X103571428Y-134545030D01*
X103571428Y-134545030D02*
X103666666Y-134402173D01*
X103666666Y-134402173D02*
X103714285Y-134211697D01*
X103714285Y-134211697D02*
X103714285Y-133830745D01*
X103714285Y-133830745D02*
X103666666Y-133735507D01*
X103666666Y-133735507D02*
X103619047Y-133687888D01*
X103619047Y-133687888D02*
X103523809Y-133640269D01*
X103523809Y-133640269D02*
X103333333Y-133640269D01*
X103333333Y-133640269D02*
X103238095Y-133687888D01*
X103238095Y-133687888D02*
X103190476Y-133735507D01*
X103190476Y-133735507D02*
X103142857Y-133830745D01*
X103142857Y-133830745D02*
X103142857Y-134068840D01*
X103142857Y-134068840D02*
X103190476Y-134164078D01*
X103190476Y-134164078D02*
X103238095Y-134211697D01*
X103238095Y-134211697D02*
X103333333Y-134259316D01*
X103333333Y-134259316D02*
X103523809Y-134259316D01*
X103523809Y-134259316D02*
X103619047Y-134211697D01*
X103619047Y-134211697D02*
X103666666Y-134164078D01*
X103666666Y-134164078D02*
X103714285Y-134068840D01*
X81235714Y-115542650D02*
X81378571Y-115590269D01*
X81378571Y-115590269D02*
X81616666Y-115590269D01*
X81616666Y-115590269D02*
X81711904Y-115542650D01*
X81711904Y-115542650D02*
X81759523Y-115495030D01*
X81759523Y-115495030D02*
X81807142Y-115399792D01*
X81807142Y-115399792D02*
X81807142Y-115304554D01*
X81807142Y-115304554D02*
X81759523Y-115209316D01*
X81759523Y-115209316D02*
X81711904Y-115161697D01*
X81711904Y-115161697D02*
X81616666Y-115114078D01*
X81616666Y-115114078D02*
X81426190Y-115066459D01*
X81426190Y-115066459D02*
X81330952Y-115018840D01*
X81330952Y-115018840D02*
X81283333Y-114971221D01*
X81283333Y-114971221D02*
X81235714Y-114875983D01*
X81235714Y-114875983D02*
X81235714Y-114780745D01*
X81235714Y-114780745D02*
X81283333Y-114685507D01*
X81283333Y-114685507D02*
X81330952Y-114637888D01*
X81330952Y-114637888D02*
X81426190Y-114590269D01*
X81426190Y-114590269D02*
X81664285Y-114590269D01*
X81664285Y-114590269D02*
X81807142Y-114637888D01*
X82140476Y-114590269D02*
X82378571Y-115590269D01*
X82378571Y-115590269D02*
X82569047Y-114875983D01*
X82569047Y-114875983D02*
X82759523Y-115590269D01*
X82759523Y-115590269D02*
X82997619Y-114590269D01*
X83140476Y-115685507D02*
X83902380Y-115685507D01*
X84569047Y-114590269D02*
X84378571Y-114590269D01*
X84378571Y-114590269D02*
X84283333Y-114637888D01*
X84283333Y-114637888D02*
X84235714Y-114685507D01*
X84235714Y-114685507D02*
X84140476Y-114828364D01*
X84140476Y-114828364D02*
X84092857Y-115018840D01*
X84092857Y-115018840D02*
X84092857Y-115399792D01*
X84092857Y-115399792D02*
X84140476Y-115495030D01*
X84140476Y-115495030D02*
X84188095Y-115542650D01*
X84188095Y-115542650D02*
X84283333Y-115590269D01*
X84283333Y-115590269D02*
X84473809Y-115590269D01*
X84473809Y-115590269D02*
X84569047Y-115542650D01*
X84569047Y-115542650D02*
X84616666Y-115495030D01*
X84616666Y-115495030D02*
X84664285Y-115399792D01*
X84664285Y-115399792D02*
X84664285Y-115161697D01*
X84664285Y-115161697D02*
X84616666Y-115066459D01*
X84616666Y-115066459D02*
X84569047Y-115018840D01*
X84569047Y-115018840D02*
X84473809Y-114971221D01*
X84473809Y-114971221D02*
X84283333Y-114971221D01*
X84283333Y-114971221D02*
X84188095Y-115018840D01*
X84188095Y-115018840D02*
X84140476Y-115066459D01*
X84140476Y-115066459D02*
X84092857Y-115161697D01*
D11*
X87261905Y-93952219D02*
X87261905Y-92952219D01*
X87261905Y-92952219D02*
X87500000Y-92952219D01*
X87500000Y-92952219D02*
X87642857Y-92999838D01*
X87642857Y-92999838D02*
X87738095Y-93095076D01*
X87738095Y-93095076D02*
X87785714Y-93190314D01*
X87785714Y-93190314D02*
X87833333Y-93380790D01*
X87833333Y-93380790D02*
X87833333Y-93523647D01*
X87833333Y-93523647D02*
X87785714Y-93714123D01*
X87785714Y-93714123D02*
X87738095Y-93809361D01*
X87738095Y-93809361D02*
X87642857Y-93904600D01*
X87642857Y-93904600D02*
X87500000Y-93952219D01*
X87500000Y-93952219D02*
X87261905Y-93952219D01*
X88785714Y-93952219D02*
X88214286Y-93952219D01*
X88500000Y-93952219D02*
X88500000Y-92952219D01*
X88500000Y-92952219D02*
X88404762Y-93095076D01*
X88404762Y-93095076D02*
X88309524Y-93190314D01*
X88309524Y-93190314D02*
X88214286Y-93237933D01*
X102761905Y-59987669D02*
X102761905Y-58987669D01*
X102761905Y-58987669D02*
X103000000Y-58987669D01*
X103000000Y-58987669D02*
X103142857Y-59035288D01*
X103142857Y-59035288D02*
X103238095Y-59130526D01*
X103238095Y-59130526D02*
X103285714Y-59225764D01*
X103285714Y-59225764D02*
X103333333Y-59416240D01*
X103333333Y-59416240D02*
X103333333Y-59559097D01*
X103333333Y-59559097D02*
X103285714Y-59749573D01*
X103285714Y-59749573D02*
X103238095Y-59844811D01*
X103238095Y-59844811D02*
X103142857Y-59940050D01*
X103142857Y-59940050D02*
X103000000Y-59987669D01*
X103000000Y-59987669D02*
X102761905Y-59987669D01*
X103952381Y-58987669D02*
X104047619Y-58987669D01*
X104047619Y-58987669D02*
X104142857Y-59035288D01*
X104142857Y-59035288D02*
X104190476Y-59082907D01*
X104190476Y-59082907D02*
X104238095Y-59178145D01*
X104238095Y-59178145D02*
X104285714Y-59368621D01*
X104285714Y-59368621D02*
X104285714Y-59606716D01*
X104285714Y-59606716D02*
X104238095Y-59797192D01*
X104238095Y-59797192D02*
X104190476Y-59892430D01*
X104190476Y-59892430D02*
X104142857Y-59940050D01*
X104142857Y-59940050D02*
X104047619Y-59987669D01*
X104047619Y-59987669D02*
X103952381Y-59987669D01*
X103952381Y-59987669D02*
X103857143Y-59940050D01*
X103857143Y-59940050D02*
X103809524Y-59892430D01*
X103809524Y-59892430D02*
X103761905Y-59797192D01*
X103761905Y-59797192D02*
X103714286Y-59606716D01*
X103714286Y-59606716D02*
X103714286Y-59368621D01*
X103714286Y-59368621D02*
X103761905Y-59178145D01*
X103761905Y-59178145D02*
X103809524Y-59082907D01*
X103809524Y-59082907D02*
X103857143Y-59035288D01*
X103857143Y-59035288D02*
X103952381Y-58987669D01*
X115761905Y-93952219D02*
X115761905Y-92952219D01*
X115761905Y-92952219D02*
X116000000Y-92952219D01*
X116000000Y-92952219D02*
X116142857Y-92999838D01*
X116142857Y-92999838D02*
X116238095Y-93095076D01*
X116238095Y-93095076D02*
X116285714Y-93190314D01*
X116285714Y-93190314D02*
X116333333Y-93380790D01*
X116333333Y-93380790D02*
X116333333Y-93523647D01*
X116333333Y-93523647D02*
X116285714Y-93714123D01*
X116285714Y-93714123D02*
X116238095Y-93809361D01*
X116238095Y-93809361D02*
X116142857Y-93904600D01*
X116142857Y-93904600D02*
X116000000Y-93952219D01*
X116000000Y-93952219D02*
X115761905Y-93952219D01*
X116714286Y-93047457D02*
X116761905Y-92999838D01*
X116761905Y-92999838D02*
X116857143Y-92952219D01*
X116857143Y-92952219D02*
X117095238Y-92952219D01*
X117095238Y-92952219D02*
X117190476Y-92999838D01*
X117190476Y-92999838D02*
X117238095Y-93047457D01*
X117238095Y-93047457D02*
X117285714Y-93142695D01*
X117285714Y-93142695D02*
X117285714Y-93237933D01*
X117285714Y-93237933D02*
X117238095Y-93380790D01*
X117238095Y-93380790D02*
X116666667Y-93952219D01*
X116666667Y-93952219D02*
X117285714Y-93952219D01*
X120261905Y-131452219D02*
X120261905Y-130452219D01*
X120261905Y-130452219D02*
X120500000Y-130452219D01*
X120500000Y-130452219D02*
X120642857Y-130499838D01*
X120642857Y-130499838D02*
X120738095Y-130595076D01*
X120738095Y-130595076D02*
X120785714Y-130690314D01*
X120785714Y-130690314D02*
X120833333Y-130880790D01*
X120833333Y-130880790D02*
X120833333Y-131023647D01*
X120833333Y-131023647D02*
X120785714Y-131214123D01*
X120785714Y-131214123D02*
X120738095Y-131309361D01*
X120738095Y-131309361D02*
X120642857Y-131404600D01*
X120642857Y-131404600D02*
X120500000Y-131452219D01*
X120500000Y-131452219D02*
X120261905Y-131452219D01*
X121404762Y-130880790D02*
X121309524Y-130833171D01*
X121309524Y-130833171D02*
X121261905Y-130785552D01*
X121261905Y-130785552D02*
X121214286Y-130690314D01*
X121214286Y-130690314D02*
X121214286Y-130642695D01*
X121214286Y-130642695D02*
X121261905Y-130547457D01*
X121261905Y-130547457D02*
X121309524Y-130499838D01*
X121309524Y-130499838D02*
X121404762Y-130452219D01*
X121404762Y-130452219D02*
X121595238Y-130452219D01*
X121595238Y-130452219D02*
X121690476Y-130499838D01*
X121690476Y-130499838D02*
X121738095Y-130547457D01*
X121738095Y-130547457D02*
X121785714Y-130642695D01*
X121785714Y-130642695D02*
X121785714Y-130690314D01*
X121785714Y-130690314D02*
X121738095Y-130785552D01*
X121738095Y-130785552D02*
X121690476Y-130833171D01*
X121690476Y-130833171D02*
X121595238Y-130880790D01*
X121595238Y-130880790D02*
X121404762Y-130880790D01*
X121404762Y-130880790D02*
X121309524Y-130928409D01*
X121309524Y-130928409D02*
X121261905Y-130976028D01*
X121261905Y-130976028D02*
X121214286Y-131071266D01*
X121214286Y-131071266D02*
X121214286Y-131261742D01*
X121214286Y-131261742D02*
X121261905Y-131356980D01*
X121261905Y-131356980D02*
X121309524Y-131404600D01*
X121309524Y-131404600D02*
X121404762Y-131452219D01*
X121404762Y-131452219D02*
X121595238Y-131452219D01*
X121595238Y-131452219D02*
X121690476Y-131404600D01*
X121690476Y-131404600D02*
X121738095Y-131356980D01*
X121738095Y-131356980D02*
X121785714Y-131261742D01*
X121785714Y-131261742D02*
X121785714Y-131071266D01*
X121785714Y-131071266D02*
X121738095Y-130976028D01*
X121738095Y-130976028D02*
X121690476Y-130928409D01*
X121690476Y-130928409D02*
X121595238Y-130880790D01*
D12*
X85334819Y-47819735D02*
X84334819Y-47819735D01*
X84334819Y-47819735D02*
X84334819Y-47581640D01*
X84334819Y-47581640D02*
X84382438Y-47438783D01*
X84382438Y-47438783D02*
X84477676Y-47343545D01*
X84477676Y-47343545D02*
X84572914Y-47295926D01*
X84572914Y-47295926D02*
X84763390Y-47248307D01*
X84763390Y-47248307D02*
X84906247Y-47248307D01*
X84906247Y-47248307D02*
X85096723Y-47295926D01*
X85096723Y-47295926D02*
X85191961Y-47343545D01*
X85191961Y-47343545D02*
X85287200Y-47438783D01*
X85287200Y-47438783D02*
X85334819Y-47581640D01*
X85334819Y-47581640D02*
X85334819Y-47819735D01*
X85334819Y-46295926D02*
X85334819Y-46867354D01*
X85334819Y-46581640D02*
X84334819Y-46581640D01*
X84334819Y-46581640D02*
X84477676Y-46676878D01*
X84477676Y-46676878D02*
X84572914Y-46772116D01*
X84572914Y-46772116D02*
X84620533Y-46867354D01*
X84334819Y-45962592D02*
X84334819Y-45295926D01*
X84334819Y-45295926D02*
X85334819Y-45724497D01*
D11*
X115485714Y-75087669D02*
X115485714Y-74087669D01*
X115485714Y-74087669D02*
X115723809Y-74087669D01*
X115723809Y-74087669D02*
X115866666Y-74135288D01*
X115866666Y-74135288D02*
X115961904Y-74230526D01*
X115961904Y-74230526D02*
X116009523Y-74325764D01*
X116009523Y-74325764D02*
X116057142Y-74516240D01*
X116057142Y-74516240D02*
X116057142Y-74659097D01*
X116057142Y-74659097D02*
X116009523Y-74849573D01*
X116009523Y-74849573D02*
X115961904Y-74944811D01*
X115961904Y-74944811D02*
X115866666Y-75040050D01*
X115866666Y-75040050D02*
X115723809Y-75087669D01*
X115723809Y-75087669D02*
X115485714Y-75087669D01*
X117009523Y-75087669D02*
X116438095Y-75087669D01*
X116723809Y-75087669D02*
X116723809Y-74087669D01*
X116723809Y-74087669D02*
X116628571Y-74230526D01*
X116628571Y-74230526D02*
X116533333Y-74325764D01*
X116533333Y-74325764D02*
X116438095Y-74373383D01*
X117866666Y-74421002D02*
X117866666Y-75087669D01*
X117628571Y-74040050D02*
X117390476Y-74754335D01*
X117390476Y-74754335D02*
X118009523Y-74754335D01*
D12*
X97454819Y-47629735D02*
X96454819Y-47629735D01*
X96454819Y-47629735D02*
X96454819Y-47391640D01*
X96454819Y-47391640D02*
X96502438Y-47248783D01*
X96502438Y-47248783D02*
X96597676Y-47153545D01*
X96597676Y-47153545D02*
X96692914Y-47105926D01*
X96692914Y-47105926D02*
X96883390Y-47058307D01*
X96883390Y-47058307D02*
X97026247Y-47058307D01*
X97026247Y-47058307D02*
X97216723Y-47105926D01*
X97216723Y-47105926D02*
X97311961Y-47153545D01*
X97311961Y-47153545D02*
X97407200Y-47248783D01*
X97407200Y-47248783D02*
X97454819Y-47391640D01*
X97454819Y-47391640D02*
X97454819Y-47629735D01*
X96550057Y-46677354D02*
X96502438Y-46629735D01*
X96502438Y-46629735D02*
X96454819Y-46534497D01*
X96454819Y-46534497D02*
X96454819Y-46296402D01*
X96454819Y-46296402D02*
X96502438Y-46201164D01*
X96502438Y-46201164D02*
X96550057Y-46153545D01*
X96550057Y-46153545D02*
X96645295Y-46105926D01*
X96645295Y-46105926D02*
X96740533Y-46105926D01*
X96740533Y-46105926D02*
X96883390Y-46153545D01*
X96883390Y-46153545D02*
X97454819Y-46724973D01*
X97454819Y-46724973D02*
X97454819Y-46105926D01*
X96788152Y-45248783D02*
X97454819Y-45248783D01*
X96407200Y-45486878D02*
X97121485Y-45724973D01*
X97121485Y-45724973D02*
X97121485Y-45105926D01*
D11*
X82261905Y-112452219D02*
X82261905Y-111452219D01*
X82261905Y-111452219D02*
X82500000Y-111452219D01*
X82500000Y-111452219D02*
X82642857Y-111499838D01*
X82642857Y-111499838D02*
X82738095Y-111595076D01*
X82738095Y-111595076D02*
X82785714Y-111690314D01*
X82785714Y-111690314D02*
X82833333Y-111880790D01*
X82833333Y-111880790D02*
X82833333Y-112023647D01*
X82833333Y-112023647D02*
X82785714Y-112214123D01*
X82785714Y-112214123D02*
X82738095Y-112309361D01*
X82738095Y-112309361D02*
X82642857Y-112404600D01*
X82642857Y-112404600D02*
X82500000Y-112452219D01*
X82500000Y-112452219D02*
X82261905Y-112452219D01*
X83166667Y-111452219D02*
X83785714Y-111452219D01*
X83785714Y-111452219D02*
X83452381Y-111833171D01*
X83452381Y-111833171D02*
X83595238Y-111833171D01*
X83595238Y-111833171D02*
X83690476Y-111880790D01*
X83690476Y-111880790D02*
X83738095Y-111928409D01*
X83738095Y-111928409D02*
X83785714Y-112023647D01*
X83785714Y-112023647D02*
X83785714Y-112261742D01*
X83785714Y-112261742D02*
X83738095Y-112356980D01*
X83738095Y-112356980D02*
X83690476Y-112404600D01*
X83690476Y-112404600D02*
X83595238Y-112452219D01*
X83595238Y-112452219D02*
X83309524Y-112452219D01*
X83309524Y-112452219D02*
X83214286Y-112404600D01*
X83214286Y-112404600D02*
X83166667Y-112356980D01*
D12*
X119335714Y-115542650D02*
X119478571Y-115590269D01*
X119478571Y-115590269D02*
X119716666Y-115590269D01*
X119716666Y-115590269D02*
X119811904Y-115542650D01*
X119811904Y-115542650D02*
X119859523Y-115495030D01*
X119859523Y-115495030D02*
X119907142Y-115399792D01*
X119907142Y-115399792D02*
X119907142Y-115304554D01*
X119907142Y-115304554D02*
X119859523Y-115209316D01*
X119859523Y-115209316D02*
X119811904Y-115161697D01*
X119811904Y-115161697D02*
X119716666Y-115114078D01*
X119716666Y-115114078D02*
X119526190Y-115066459D01*
X119526190Y-115066459D02*
X119430952Y-115018840D01*
X119430952Y-115018840D02*
X119383333Y-114971221D01*
X119383333Y-114971221D02*
X119335714Y-114875983D01*
X119335714Y-114875983D02*
X119335714Y-114780745D01*
X119335714Y-114780745D02*
X119383333Y-114685507D01*
X119383333Y-114685507D02*
X119430952Y-114637888D01*
X119430952Y-114637888D02*
X119526190Y-114590269D01*
X119526190Y-114590269D02*
X119764285Y-114590269D01*
X119764285Y-114590269D02*
X119907142Y-114637888D01*
X120240476Y-114590269D02*
X120478571Y-115590269D01*
X120478571Y-115590269D02*
X120669047Y-114875983D01*
X120669047Y-114875983D02*
X120859523Y-115590269D01*
X120859523Y-115590269D02*
X121097619Y-114590269D01*
X121240476Y-115685507D02*
X122002380Y-115685507D01*
X122383333Y-115018840D02*
X122288095Y-114971221D01*
X122288095Y-114971221D02*
X122240476Y-114923602D01*
X122240476Y-114923602D02*
X122192857Y-114828364D01*
X122192857Y-114828364D02*
X122192857Y-114780745D01*
X122192857Y-114780745D02*
X122240476Y-114685507D01*
X122240476Y-114685507D02*
X122288095Y-114637888D01*
X122288095Y-114637888D02*
X122383333Y-114590269D01*
X122383333Y-114590269D02*
X122573809Y-114590269D01*
X122573809Y-114590269D02*
X122669047Y-114637888D01*
X122669047Y-114637888D02*
X122716666Y-114685507D01*
X122716666Y-114685507D02*
X122764285Y-114780745D01*
X122764285Y-114780745D02*
X122764285Y-114828364D01*
X122764285Y-114828364D02*
X122716666Y-114923602D01*
X122716666Y-114923602D02*
X122669047Y-114971221D01*
X122669047Y-114971221D02*
X122573809Y-115018840D01*
X122573809Y-115018840D02*
X122383333Y-115018840D01*
X122383333Y-115018840D02*
X122288095Y-115066459D01*
X122288095Y-115066459D02*
X122240476Y-115114078D01*
X122240476Y-115114078D02*
X122192857Y-115209316D01*
X122192857Y-115209316D02*
X122192857Y-115399792D01*
X122192857Y-115399792D02*
X122240476Y-115495030D01*
X122240476Y-115495030D02*
X122288095Y-115542650D01*
X122288095Y-115542650D02*
X122383333Y-115590269D01*
X122383333Y-115590269D02*
X122573809Y-115590269D01*
X122573809Y-115590269D02*
X122669047Y-115542650D01*
X122669047Y-115542650D02*
X122716666Y-115495030D01*
X122716666Y-115495030D02*
X122764285Y-115399792D01*
X122764285Y-115399792D02*
X122764285Y-115209316D01*
X122764285Y-115209316D02*
X122716666Y-115114078D01*
X122716666Y-115114078D02*
X122669047Y-115066459D01*
X122669047Y-115066459D02*
X122573809Y-115018840D01*
D11*
X101261905Y-112452219D02*
X101261905Y-111452219D01*
X101261905Y-111452219D02*
X101500000Y-111452219D01*
X101500000Y-111452219D02*
X101642857Y-111499838D01*
X101642857Y-111499838D02*
X101738095Y-111595076D01*
X101738095Y-111595076D02*
X101785714Y-111690314D01*
X101785714Y-111690314D02*
X101833333Y-111880790D01*
X101833333Y-111880790D02*
X101833333Y-112023647D01*
X101833333Y-112023647D02*
X101785714Y-112214123D01*
X101785714Y-112214123D02*
X101738095Y-112309361D01*
X101738095Y-112309361D02*
X101642857Y-112404600D01*
X101642857Y-112404600D02*
X101500000Y-112452219D01*
X101500000Y-112452219D02*
X101261905Y-112452219D01*
X102690476Y-111785552D02*
X102690476Y-112452219D01*
X102452381Y-111404600D02*
X102214286Y-112118885D01*
X102214286Y-112118885D02*
X102833333Y-112118885D01*
X101261905Y-131452219D02*
X101261905Y-130452219D01*
X101261905Y-130452219D02*
X101500000Y-130452219D01*
X101500000Y-130452219D02*
X101642857Y-130499838D01*
X101642857Y-130499838D02*
X101738095Y-130595076D01*
X101738095Y-130595076D02*
X101785714Y-130690314D01*
X101785714Y-130690314D02*
X101833333Y-130880790D01*
X101833333Y-130880790D02*
X101833333Y-131023647D01*
X101833333Y-131023647D02*
X101785714Y-131214123D01*
X101785714Y-131214123D02*
X101738095Y-131309361D01*
X101738095Y-131309361D02*
X101642857Y-131404600D01*
X101642857Y-131404600D02*
X101500000Y-131452219D01*
X101500000Y-131452219D02*
X101261905Y-131452219D01*
X102166667Y-130452219D02*
X102833333Y-130452219D01*
X102833333Y-130452219D02*
X102404762Y-131452219D01*
X82261905Y-131452219D02*
X82261905Y-130452219D01*
X82261905Y-130452219D02*
X82500000Y-130452219D01*
X82500000Y-130452219D02*
X82642857Y-130499838D01*
X82642857Y-130499838D02*
X82738095Y-130595076D01*
X82738095Y-130595076D02*
X82785714Y-130690314D01*
X82785714Y-130690314D02*
X82833333Y-130880790D01*
X82833333Y-130880790D02*
X82833333Y-131023647D01*
X82833333Y-131023647D02*
X82785714Y-131214123D01*
X82785714Y-131214123D02*
X82738095Y-131309361D01*
X82738095Y-131309361D02*
X82642857Y-131404600D01*
X82642857Y-131404600D02*
X82500000Y-131452219D01*
X82500000Y-131452219D02*
X82261905Y-131452219D01*
X83690476Y-130452219D02*
X83500000Y-130452219D01*
X83500000Y-130452219D02*
X83404762Y-130499838D01*
X83404762Y-130499838D02*
X83357143Y-130547457D01*
X83357143Y-130547457D02*
X83261905Y-130690314D01*
X83261905Y-130690314D02*
X83214286Y-130880790D01*
X83214286Y-130880790D02*
X83214286Y-131261742D01*
X83214286Y-131261742D02*
X83261905Y-131356980D01*
X83261905Y-131356980D02*
X83309524Y-131404600D01*
X83309524Y-131404600D02*
X83404762Y-131452219D01*
X83404762Y-131452219D02*
X83595238Y-131452219D01*
X83595238Y-131452219D02*
X83690476Y-131404600D01*
X83690476Y-131404600D02*
X83738095Y-131356980D01*
X83738095Y-131356980D02*
X83785714Y-131261742D01*
X83785714Y-131261742D02*
X83785714Y-131023647D01*
X83785714Y-131023647D02*
X83738095Y-130928409D01*
X83738095Y-130928409D02*
X83690476Y-130880790D01*
X83690476Y-130880790D02*
X83595238Y-130833171D01*
X83595238Y-130833171D02*
X83404762Y-130833171D01*
X83404762Y-130833171D02*
X83309524Y-130880790D01*
X83309524Y-130880790D02*
X83261905Y-130928409D01*
X83261905Y-130928409D02*
X83214286Y-131023647D01*
X101261905Y-150952219D02*
X101261905Y-149952219D01*
X101261905Y-149952219D02*
X101500000Y-149952219D01*
X101500000Y-149952219D02*
X101642857Y-149999838D01*
X101642857Y-149999838D02*
X101738095Y-150095076D01*
X101738095Y-150095076D02*
X101785714Y-150190314D01*
X101785714Y-150190314D02*
X101833333Y-150380790D01*
X101833333Y-150380790D02*
X101833333Y-150523647D01*
X101833333Y-150523647D02*
X101785714Y-150714123D01*
X101785714Y-150714123D02*
X101738095Y-150809361D01*
X101738095Y-150809361D02*
X101642857Y-150904600D01*
X101642857Y-150904600D02*
X101500000Y-150952219D01*
X101500000Y-150952219D02*
X101261905Y-150952219D01*
X102309524Y-150952219D02*
X102500000Y-150952219D01*
X102500000Y-150952219D02*
X102595238Y-150904600D01*
X102595238Y-150904600D02*
X102642857Y-150856980D01*
X102642857Y-150856980D02*
X102738095Y-150714123D01*
X102738095Y-150714123D02*
X102785714Y-150523647D01*
X102785714Y-150523647D02*
X102785714Y-150142695D01*
X102785714Y-150142695D02*
X102738095Y-150047457D01*
X102738095Y-150047457D02*
X102690476Y-149999838D01*
X102690476Y-149999838D02*
X102595238Y-149952219D01*
X102595238Y-149952219D02*
X102404762Y-149952219D01*
X102404762Y-149952219D02*
X102309524Y-149999838D01*
X102309524Y-149999838D02*
X102261905Y-150047457D01*
X102261905Y-150047457D02*
X102214286Y-150142695D01*
X102214286Y-150142695D02*
X102214286Y-150380790D01*
X102214286Y-150380790D02*
X102261905Y-150476028D01*
X102261905Y-150476028D02*
X102309524Y-150523647D01*
X102309524Y-150523647D02*
X102404762Y-150571266D01*
X102404762Y-150571266D02*
X102595238Y-150571266D01*
X102595238Y-150571266D02*
X102690476Y-150523647D01*
X102690476Y-150523647D02*
X102738095Y-150476028D01*
X102738095Y-150476028D02*
X102785714Y-150380790D01*
D12*
X100285714Y-115542650D02*
X100428571Y-115590269D01*
X100428571Y-115590269D02*
X100666666Y-115590269D01*
X100666666Y-115590269D02*
X100761904Y-115542650D01*
X100761904Y-115542650D02*
X100809523Y-115495030D01*
X100809523Y-115495030D02*
X100857142Y-115399792D01*
X100857142Y-115399792D02*
X100857142Y-115304554D01*
X100857142Y-115304554D02*
X100809523Y-115209316D01*
X100809523Y-115209316D02*
X100761904Y-115161697D01*
X100761904Y-115161697D02*
X100666666Y-115114078D01*
X100666666Y-115114078D02*
X100476190Y-115066459D01*
X100476190Y-115066459D02*
X100380952Y-115018840D01*
X100380952Y-115018840D02*
X100333333Y-114971221D01*
X100333333Y-114971221D02*
X100285714Y-114875983D01*
X100285714Y-114875983D02*
X100285714Y-114780745D01*
X100285714Y-114780745D02*
X100333333Y-114685507D01*
X100333333Y-114685507D02*
X100380952Y-114637888D01*
X100380952Y-114637888D02*
X100476190Y-114590269D01*
X100476190Y-114590269D02*
X100714285Y-114590269D01*
X100714285Y-114590269D02*
X100857142Y-114637888D01*
X101190476Y-114590269D02*
X101428571Y-115590269D01*
X101428571Y-115590269D02*
X101619047Y-114875983D01*
X101619047Y-114875983D02*
X101809523Y-115590269D01*
X101809523Y-115590269D02*
X102047619Y-114590269D01*
X102190476Y-115685507D02*
X102952380Y-115685507D01*
X103095238Y-114590269D02*
X103761904Y-114590269D01*
X103761904Y-114590269D02*
X103333333Y-115590269D01*
X81235714Y-96492650D02*
X81378571Y-96540269D01*
X81378571Y-96540269D02*
X81616666Y-96540269D01*
X81616666Y-96540269D02*
X81711904Y-96492650D01*
X81711904Y-96492650D02*
X81759523Y-96445030D01*
X81759523Y-96445030D02*
X81807142Y-96349792D01*
X81807142Y-96349792D02*
X81807142Y-96254554D01*
X81807142Y-96254554D02*
X81759523Y-96159316D01*
X81759523Y-96159316D02*
X81711904Y-96111697D01*
X81711904Y-96111697D02*
X81616666Y-96064078D01*
X81616666Y-96064078D02*
X81426190Y-96016459D01*
X81426190Y-96016459D02*
X81330952Y-95968840D01*
X81330952Y-95968840D02*
X81283333Y-95921221D01*
X81283333Y-95921221D02*
X81235714Y-95825983D01*
X81235714Y-95825983D02*
X81235714Y-95730745D01*
X81235714Y-95730745D02*
X81283333Y-95635507D01*
X81283333Y-95635507D02*
X81330952Y-95587888D01*
X81330952Y-95587888D02*
X81426190Y-95540269D01*
X81426190Y-95540269D02*
X81664285Y-95540269D01*
X81664285Y-95540269D02*
X81807142Y-95587888D01*
X82140476Y-95540269D02*
X82378571Y-96540269D01*
X82378571Y-96540269D02*
X82569047Y-95825983D01*
X82569047Y-95825983D02*
X82759523Y-96540269D01*
X82759523Y-96540269D02*
X82997619Y-95540269D01*
X83140476Y-96635507D02*
X83902380Y-96635507D01*
X84045238Y-95540269D02*
X84664285Y-95540269D01*
X84664285Y-95540269D02*
X84330952Y-95921221D01*
X84330952Y-95921221D02*
X84473809Y-95921221D01*
X84473809Y-95921221D02*
X84569047Y-95968840D01*
X84569047Y-95968840D02*
X84616666Y-96016459D01*
X84616666Y-96016459D02*
X84664285Y-96111697D01*
X84664285Y-96111697D02*
X84664285Y-96349792D01*
X84664285Y-96349792D02*
X84616666Y-96445030D01*
X84616666Y-96445030D02*
X84569047Y-96492650D01*
X84569047Y-96492650D02*
X84473809Y-96540269D01*
X84473809Y-96540269D02*
X84188095Y-96540269D01*
X84188095Y-96540269D02*
X84092857Y-96492650D01*
X84092857Y-96492650D02*
X84045238Y-96445030D01*
X94454819Y-47629735D02*
X93454819Y-47629735D01*
X93454819Y-47629735D02*
X93454819Y-47391640D01*
X93454819Y-47391640D02*
X93502438Y-47248783D01*
X93502438Y-47248783D02*
X93597676Y-47153545D01*
X93597676Y-47153545D02*
X93692914Y-47105926D01*
X93692914Y-47105926D02*
X93883390Y-47058307D01*
X93883390Y-47058307D02*
X94026247Y-47058307D01*
X94026247Y-47058307D02*
X94216723Y-47105926D01*
X94216723Y-47105926D02*
X94311961Y-47153545D01*
X94311961Y-47153545D02*
X94407200Y-47248783D01*
X94407200Y-47248783D02*
X94454819Y-47391640D01*
X94454819Y-47391640D02*
X94454819Y-47629735D01*
X93550057Y-46677354D02*
X93502438Y-46629735D01*
X93502438Y-46629735D02*
X93454819Y-46534497D01*
X93454819Y-46534497D02*
X93454819Y-46296402D01*
X93454819Y-46296402D02*
X93502438Y-46201164D01*
X93502438Y-46201164D02*
X93550057Y-46153545D01*
X93550057Y-46153545D02*
X93645295Y-46105926D01*
X93645295Y-46105926D02*
X93740533Y-46105926D01*
X93740533Y-46105926D02*
X93883390Y-46153545D01*
X93883390Y-46153545D02*
X94454819Y-46724973D01*
X94454819Y-46724973D02*
X94454819Y-46105926D01*
X93550057Y-45724973D02*
X93502438Y-45677354D01*
X93502438Y-45677354D02*
X93454819Y-45582116D01*
X93454819Y-45582116D02*
X93454819Y-45344021D01*
X93454819Y-45344021D02*
X93502438Y-45248783D01*
X93502438Y-45248783D02*
X93550057Y-45201164D01*
X93550057Y-45201164D02*
X93645295Y-45153545D01*
X93645295Y-45153545D02*
X93740533Y-45153545D01*
X93740533Y-45153545D02*
X93883390Y-45201164D01*
X93883390Y-45201164D02*
X94454819Y-45772592D01*
X94454819Y-45772592D02*
X94454819Y-45153545D01*
X85998214Y-77442650D02*
X86141071Y-77490269D01*
X86141071Y-77490269D02*
X86379166Y-77490269D01*
X86379166Y-77490269D02*
X86474404Y-77442650D01*
X86474404Y-77442650D02*
X86522023Y-77395030D01*
X86522023Y-77395030D02*
X86569642Y-77299792D01*
X86569642Y-77299792D02*
X86569642Y-77204554D01*
X86569642Y-77204554D02*
X86522023Y-77109316D01*
X86522023Y-77109316D02*
X86474404Y-77061697D01*
X86474404Y-77061697D02*
X86379166Y-77014078D01*
X86379166Y-77014078D02*
X86188690Y-76966459D01*
X86188690Y-76966459D02*
X86093452Y-76918840D01*
X86093452Y-76918840D02*
X86045833Y-76871221D01*
X86045833Y-76871221D02*
X85998214Y-76775983D01*
X85998214Y-76775983D02*
X85998214Y-76680745D01*
X85998214Y-76680745D02*
X86045833Y-76585507D01*
X86045833Y-76585507D02*
X86093452Y-76537888D01*
X86093452Y-76537888D02*
X86188690Y-76490269D01*
X86188690Y-76490269D02*
X86426785Y-76490269D01*
X86426785Y-76490269D02*
X86569642Y-76537888D01*
X86902976Y-76490269D02*
X87141071Y-77490269D01*
X87141071Y-77490269D02*
X87331547Y-76775983D01*
X87331547Y-76775983D02*
X87522023Y-77490269D01*
X87522023Y-77490269D02*
X87760119Y-76490269D01*
X87902976Y-77585507D02*
X88664880Y-77585507D01*
X89426785Y-77490269D02*
X88855357Y-77490269D01*
X89141071Y-77490269D02*
X89141071Y-76490269D01*
X89141071Y-76490269D02*
X89045833Y-76633126D01*
X89045833Y-76633126D02*
X88950595Y-76728364D01*
X88950595Y-76728364D02*
X88855357Y-76775983D01*
D11*
X84885714Y-75087669D02*
X84885714Y-74087669D01*
X84885714Y-74087669D02*
X85123809Y-74087669D01*
X85123809Y-74087669D02*
X85266666Y-74135288D01*
X85266666Y-74135288D02*
X85361904Y-74230526D01*
X85361904Y-74230526D02*
X85409523Y-74325764D01*
X85409523Y-74325764D02*
X85457142Y-74516240D01*
X85457142Y-74516240D02*
X85457142Y-74659097D01*
X85457142Y-74659097D02*
X85409523Y-74849573D01*
X85409523Y-74849573D02*
X85361904Y-74944811D01*
X85361904Y-74944811D02*
X85266666Y-75040050D01*
X85266666Y-75040050D02*
X85123809Y-75087669D01*
X85123809Y-75087669D02*
X84885714Y-75087669D01*
X86409523Y-75087669D02*
X85838095Y-75087669D01*
X86123809Y-75087669D02*
X86123809Y-74087669D01*
X86123809Y-74087669D02*
X86028571Y-74230526D01*
X86028571Y-74230526D02*
X85933333Y-74325764D01*
X85933333Y-74325764D02*
X85838095Y-74373383D01*
X87361904Y-75087669D02*
X86790476Y-75087669D01*
X87076190Y-75087669D02*
X87076190Y-74087669D01*
X87076190Y-74087669D02*
X86980952Y-74230526D01*
X86980952Y-74230526D02*
X86885714Y-74325764D01*
X86885714Y-74325764D02*
X86790476Y-74373383D01*
D13*
%TO.C,SW_5*%
X113950000Y-96985450D02*
X113950000Y-111185450D01*
X113950000Y-111185450D02*
X128150000Y-111185450D01*
X128150000Y-96985450D02*
X113950000Y-96985450D01*
X128150000Y-111185450D02*
X128150000Y-96985450D01*
%TO.C,D23*%
X103000000Y-43455450D02*
X103000000Y-44105450D01*
X103000000Y-48995450D02*
X103000000Y-48345450D01*
X104120000Y-44705450D02*
X101880000Y-44705450D01*
X104120000Y-44825450D02*
X101880000Y-44825450D01*
X104120000Y-44945450D02*
X101880000Y-44945450D01*
X104120000Y-44105450D02*
X101880000Y-44105450D01*
X101880000Y-48345450D01*
X104120000Y-48345450D01*
X104120000Y-44105450D01*
%TO.C,D28*%
X100000000Y-43455450D02*
X100000000Y-44105450D01*
X100000000Y-48995450D02*
X100000000Y-48345450D01*
X101120000Y-44705450D02*
X98880000Y-44705450D01*
X101120000Y-44825450D02*
X98880000Y-44825450D01*
X101120000Y-44945450D02*
X98880000Y-44945450D01*
X101120000Y-44105450D02*
X98880000Y-44105450D01*
X98880000Y-48345450D01*
X101120000Y-48345450D01*
X101120000Y-44105450D01*
%TO.C,D19*%
X106000000Y-43455450D02*
X106000000Y-44105450D01*
X106000000Y-48995450D02*
X106000000Y-48345450D01*
X107120000Y-44705450D02*
X104880000Y-44705450D01*
X107120000Y-44825450D02*
X104880000Y-44825450D01*
X107120000Y-44945450D02*
X104880000Y-44945450D01*
X107120000Y-44105450D02*
X104880000Y-44105450D01*
X104880000Y-48345450D01*
X107120000Y-48345450D01*
X107120000Y-44105450D01*
%TO.C,SW_4*%
X94900000Y-96985450D02*
X94900000Y-111185450D01*
X94900000Y-111185450D02*
X109100000Y-111185450D01*
X109100000Y-96985450D02*
X94900000Y-96985450D01*
X109100000Y-111185450D02*
X109100000Y-96985450D01*
%TO.C,D20*%
X88000000Y-43455450D02*
X88000000Y-44105450D01*
X88000000Y-48995450D02*
X88000000Y-48345450D01*
X89120000Y-44705450D02*
X86880000Y-44705450D01*
X89120000Y-44825450D02*
X86880000Y-44825450D01*
X89120000Y-44945450D02*
X86880000Y-44945450D01*
X89120000Y-44105450D02*
X86880000Y-44105450D01*
X86880000Y-48345450D01*
X89120000Y-48345450D01*
X89120000Y-44105450D01*
%TO.C,J1*%
X94120000Y-62475450D02*
X94120000Y-54745450D01*
X96880000Y-54745450D02*
X94120000Y-54745450D01*
X96880000Y-62475450D02*
X94120000Y-62475450D01*
X96880000Y-62475450D02*
X96880000Y-54745450D01*
X96880000Y-63745450D02*
X96880000Y-65125450D01*
X96880000Y-65125450D02*
X95500000Y-65125450D01*
%TO.C,D16*%
X82000000Y-43455450D02*
X82000000Y-44105450D01*
X82000000Y-48995450D02*
X82000000Y-48345450D01*
X83120000Y-44705450D02*
X80880000Y-44705450D01*
X83120000Y-44825450D02*
X80880000Y-44825450D01*
X83120000Y-44945450D02*
X80880000Y-44945450D01*
X83120000Y-44105450D02*
X80880000Y-44105450D01*
X80880000Y-48345450D01*
X83120000Y-48345450D01*
X83120000Y-44105450D01*
%TO.C,D18*%
X91000000Y-43455450D02*
X91000000Y-44105450D01*
X91000000Y-48995450D02*
X91000000Y-48345450D01*
X92120000Y-44705450D02*
X89880000Y-44705450D01*
X92120000Y-44825450D02*
X89880000Y-44825450D01*
X92120000Y-44945450D02*
X89880000Y-44945450D01*
X92120000Y-44105450D02*
X89880000Y-44105450D01*
X89880000Y-48345450D01*
X92120000Y-48345450D01*
X92120000Y-44105450D01*
%TO.C,SW1*%
X74700000Y-55835450D02*
X75300000Y-55835450D01*
X75000000Y-56135450D02*
X74700000Y-55835450D01*
X75300000Y-55835450D02*
X75000000Y-56135450D01*
X76400000Y-54035450D02*
X76400000Y-65835450D01*
X80500000Y-54035450D02*
X76400000Y-54035450D01*
X80500000Y-65835450D02*
X76400000Y-65835450D01*
X82000000Y-59935450D02*
X83000000Y-59935450D01*
X82500000Y-59435450D02*
X82500000Y-60435450D01*
X84500000Y-54035450D02*
X88600000Y-54035450D01*
X88600000Y-54035450D02*
X88600000Y-56435450D01*
X88600000Y-58635450D02*
X88600000Y-61235450D01*
X88600000Y-63435450D02*
X88600000Y-65835450D01*
X88600000Y-65835450D02*
X84500000Y-65835450D01*
X85500000Y-59935450D02*
G75*
G02*
X79500000Y-59935450I-3000000J0D01*
G01*
X79500000Y-59935450D02*
G75*
G02*
X85500000Y-59935450I3000000J0D01*
G01*
%TO.C,SW_2*%
X109187500Y-77935450D02*
X109187500Y-92135450D01*
X109187500Y-92135450D02*
X123387500Y-92135450D01*
X123387500Y-77935450D02*
X109187500Y-77935450D01*
X123387500Y-92135450D02*
X123387500Y-77935450D01*
%TO.C,SW_9*%
X94900000Y-135085450D02*
X94900000Y-149285450D01*
X94900000Y-149285450D02*
X109100000Y-149285450D01*
X109100000Y-135085450D02*
X94900000Y-135085450D01*
X109100000Y-149285450D02*
X109100000Y-135085450D01*
%TO.C,SW_6*%
X75850000Y-116035450D02*
X75850000Y-130235450D01*
X75850000Y-130235450D02*
X90050000Y-130235450D01*
X90050000Y-116035450D02*
X75850000Y-116035450D01*
X90050000Y-130235450D02*
X90050000Y-116035450D01*
%TO.C,D17*%
X85000000Y-43455450D02*
X85000000Y-44105450D01*
X85000000Y-48995450D02*
X85000000Y-48345450D01*
X86120000Y-44705450D02*
X83880000Y-44705450D01*
X86120000Y-44825450D02*
X83880000Y-44825450D01*
X86120000Y-44945450D02*
X83880000Y-44945450D01*
X86120000Y-44105450D02*
X83880000Y-44105450D01*
X83880000Y-48345450D01*
X86120000Y-48345450D01*
X86120000Y-44105450D01*
%TO.C,D24*%
X97000000Y-43455450D02*
X97000000Y-44105450D01*
X97000000Y-48995450D02*
X97000000Y-48345450D01*
X98120000Y-44705450D02*
X95880000Y-44705450D01*
X98120000Y-44825450D02*
X95880000Y-44825450D01*
X98120000Y-44945450D02*
X95880000Y-44945450D01*
X98120000Y-44105450D02*
X95880000Y-44105450D01*
X95880000Y-48345450D01*
X98120000Y-48345450D01*
X98120000Y-44105450D01*
%TO.C,SW_8*%
X113950000Y-116035450D02*
X113950000Y-130235450D01*
X113950000Y-130235450D02*
X128150000Y-130235450D01*
X128150000Y-116035450D02*
X113950000Y-116035450D01*
X128150000Y-130235450D02*
X128150000Y-116035450D01*
%TO.C,SW_7*%
X94900000Y-116035450D02*
X94900000Y-130235450D01*
X94900000Y-130235450D02*
X109100000Y-130235450D01*
X109100000Y-116035450D02*
X94900000Y-116035450D01*
X109100000Y-130235450D02*
X109100000Y-116035450D01*
%TO.C,SW_3*%
X75850000Y-96985450D02*
X75850000Y-111185450D01*
X75850000Y-111185450D02*
X90050000Y-111185450D01*
X90050000Y-96985450D02*
X75850000Y-96985450D01*
X90050000Y-111185450D02*
X90050000Y-96985450D01*
%TO.C,D22*%
X94000000Y-43455450D02*
X94000000Y-44105450D01*
X94000000Y-48995450D02*
X94000000Y-48345450D01*
X95120000Y-44705450D02*
X92880000Y-44705450D01*
X95120000Y-44825450D02*
X92880000Y-44825450D01*
X95120000Y-44945450D02*
X92880000Y-44945450D01*
X95120000Y-44105450D02*
X92880000Y-44105450D01*
X92880000Y-48345450D01*
X95120000Y-48345450D01*
X95120000Y-44105450D01*
%TO.C,SW_1*%
X80612500Y-77935450D02*
X80612500Y-92135450D01*
X80612500Y-92135450D02*
X94812500Y-92135450D01*
X94812500Y-77935450D02*
X80612500Y-77935450D01*
X94812500Y-92135450D02*
X94812500Y-77935450D01*
%TD*%
M02*
