M48
; DRILL file {KiCad 9.0.7} date 2026-03-26T22:25:33+0800
; FORMAT={-:-/ absolute / metric / decimal}
; #@! TF.CreationDate,2026-03-26T22:25:33+08:00
; #@! TF.GenerationSoftware,Kicad,Pcbnew,9.0.7
; #@! TF.FileFunction,NonPlated,1,2,NPTH
FMAT,2
METRIC
; #@! TA.AperFunction,NonPlated,NPTH,ComponentDrill
T1C1.750
; #@! TA.AperFunction,NonPlated,NPTH,ComponentDrill
T2C3.048
; #@! TA.AperFunction,NonPlated,NPTH,ComponentDrill
T3C3.050
; #@! TA.AperFunction,NonPlated,NPTH,ComponentDrill
T4C3.988
; #@! TA.AperFunction,NonPlated,NPTH,ComponentDrill
T5C4.000
%
G90
G05
T1
X77.87Y-104.085
X77.87Y-123.135
X82.632Y-85.035
X88.03Y-104.085
X88.03Y-123.135
X92.792Y-85.035
X96.92Y-104.085
X96.92Y-123.135
X96.92Y-142.185
X107.08Y-104.085
X107.08Y-123.135
X107.08Y-142.185
X111.207Y-85.035
X115.97Y-104.085
X115.97Y-123.135
X121.367Y-85.035
X126.13Y-104.085
X126.13Y-123.135
T2
X82.95Y-135.2
X121.05Y-135.2
T3
X79.14Y-101.545
X79.14Y-120.595
X83.902Y-82.495
X85.49Y-99.005
X85.49Y-118.055
X90.252Y-79.955
X98.19Y-101.545
X98.19Y-120.595
X98.19Y-139.645
X104.54Y-99.005
X104.54Y-118.055
X104.54Y-137.105
X112.477Y-82.495
X117.24Y-101.545
X117.24Y-120.595
X118.828Y-79.955
X123.59Y-99.005
X123.59Y-118.055
T4
X82.95Y-150.41
X121.05Y-150.41
T5
X82.95Y-104.085
X82.95Y-123.135
X87.712Y-85.035
X102.0Y-104.085
X102.0Y-123.135
X102.0Y-142.185
X116.287Y-85.035
X121.05Y-104.085
X121.05Y-123.135
M30
