M48
; DRILL file {KiCad 9.0.7} date 2026-03-26T22:25:33+0800
; FORMAT={-:-/ absolute / metric / decimal}
; #@! TF.CreationDate,2026-03-26T22:25:33+08:00
; #@! TF.GenerationSoftware,Kicad,Pcbnew,9.0.7
; #@! TF.FileFunction,Plated,1,2,PTH
FMAT,2
METRIC
; #@! TA.AperFunction,Plated,PTH,ViaDrill
T1C0.300
; #@! TA.AperFunction,Plated,PTH,ComponentDrill
T2C0.800
; #@! TA.AperFunction,Plated,PTH,ComponentDrill
T3C1.000
; #@! TA.AperFunction,Plated,PTH,ComponentDrill
T4C1.500
%
G90
G05
T1
X80.5Y-76.035
X84.0Y-76.035
X84.5Y-87.035
X87.0Y-74.435
X87.5Y-108.035
X88.0Y-126.086
X90.0Y-111.535
X90.0Y-112.535
X91.5Y-129.5
X92.0Y-73.535
X92.0Y-77.035
X92.0Y-98.035
X93.0Y-95.035
X94.0Y-109.035
X95.5Y-125.535
X96.25Y-133.285
X96.6Y-112.535
X97.0Y-83.5
X97.4Y-64.147
X97.5Y-130.035
X98.0Y-95.035
X98.25Y-107.285
X98.5Y-44.535
X99.5Y-77.035
X101.0Y-87.535
X102.0Y-44.535
X102.5Y-77.035
X103.5Y-77.035
X104.5Y-77.035
X107.5Y-129.5
X108.95Y-111.735
X109.0Y-112.535
X109.0Y-125.535
X112.0Y-93.035
X113.5Y-86.935
X114.0Y-125.535
X115.5Y-61.0
X115.5Y-74.435
X116.5Y-112.535
X117.5Y-114.035
X118.0Y-95.5
X119.0Y-87.536
X122.0Y-77.035
X124.0Y-57.035
X124.0Y-59.035
X125.25Y-107.785
X125.5Y-74.535
X126.5Y-128.535
X126.6Y-94.535
X127.0Y-77.535
X127.356Y-112.535
X129.5Y-75.135
T2
X82.0Y-42.415
X82.0Y-50.035
X85.0Y-42.415
X85.0Y-50.035
X88.0Y-42.415
X88.0Y-50.035
X91.0Y-42.415
X91.0Y-50.035
X94.0Y-42.415
X94.0Y-50.035
X97.0Y-42.415
X97.0Y-50.035
X100.0Y-42.415
X100.0Y-50.035
X103.0Y-42.415
X103.0Y-50.035
X106.0Y-42.415
X106.0Y-50.035
T3
X75.0Y-57.435
X75.0Y-59.935
X75.0Y-62.435
X89.5Y-57.435
X89.5Y-62.435
X95.5Y-56.125
X95.5Y-58.665
X95.5Y-61.205
X95.5Y-63.745
X111.986Y-46.627
X111.986Y-49.167
X111.986Y-51.707
X111.986Y-54.247
X111.986Y-56.787
X111.986Y-59.327
X111.986Y-61.867
X127.235Y-46.627
X127.235Y-49.167
X127.235Y-51.707
X127.235Y-54.247
X127.235Y-56.787
X127.235Y-59.327
X127.235Y-61.867
T4
X81.85Y-54.335G85X83.15Y-54.335
G05
X81.85Y-65.535G85X83.15Y-65.535
G05
M30
